<?xml version="1.0" encoding="iso-8859-1"?>
<!-- Generator: Adobe Illustrator 17.1.0, SVG Export Plug-In . SVG Version: 6.00 Build 0)  -->
<!DOCTYPE svg PUBLIC "-//W3C//DTD SVG 1.0//EN" "http://www.w3.org/TR/2001/REC-SVG-20010904/DTD/svg10.dtd">
<svg version="1.0" xmlns="http://www.w3.org/2000/svg" xmlns:xlink="http://www.w3.org/1999/xlink" x="0px" y="0px" width="110px"
	 height="110px" viewBox="0 0 110 110" style="enable-background:new 0 0 110 110;" xml:space="preserve">
<g id="Artboard">
</g>
<g id="Multicolor">
	<circle style="fill:#4299AF;" cx="55" cy="55" r="55"/>
	<g>
		<polygon style="fill:#FFFFFF;" points="78,41 78,54 69,54 69,56 78,56 78,68 80,68 80,41 		"/>
		<polygon style="fill:#FFFFFF;" points="41,54 32,54 32,41 30,41 30,68 32,68 32,56 41,56 		"/>
		<path style="fill:#E2E4E5;" d="M55,49.833c-7.732,0-14-2.612-14-5.833v22.167C41,69.388,47.268,72,55,72s14-2.612,14-5.833V44
			C69,47.222,62.732,49.833,55,49.833z"/>
		<path style="fill:#F0F1F1;" d="M41,44v22.167C41,69.388,47.268,72,55,72V49.833C47.268,49.833,41,47.222,41,44z"/>
		<ellipse style="fill:#FFFFFF;" cx="55" cy="44" rx="14" ry="5.833"/>
		<path style="fill:#CFD3D4;" d="M55,55.667c-8.374,0-14-2.715-14-5.25v2.513c2.268,2.315,7.614,3.904,14,3.904
			s11.732-1.589,14-3.904v-2.513C69,52.952,63.374,55.667,55,55.667z"/>
		<path style="fill:#CFD3D4;" d="M55,63.25c-8.374,0-14-2.715-14-5.25v2.513c2.268,2.315,7.614,3.904,14,3.904
			s11.732-1.589,14-3.904V58C69,60.535,63.374,63.25,55,63.25z"/>
		<g>
			<path style="fill:#E2E4E5;" d="M55,55.667c-8.374,0-14-2.715-14-5.25v2.513c2.268,2.315,7.614,3.904,14,3.904V55.667z"/>
			<path style="fill:#E2E4E5;" d="M41,58v2.513c2.268,2.315,7.614,3.904,14,3.904V63.25C46.626,63.25,41,60.535,41,58z"/>
		</g>
		<g>
			<path style="fill:#E2E4E5;" d="M79,74.333c-4.418,0-8-1.492-8-3.333v12.667C71,85.508,74.582,87,79,87s8-1.492,8-3.333V71
				C87,72.841,83.418,74.333,79,74.333z"/>
			<path style="fill:#F0F1F1;" d="M71,71v12.667C71,85.508,74.582,87,79,87V74.333C74.582,74.333,71,72.841,71,71z"/>
			<ellipse style="fill:#FFFFFF;" cx="79" cy="71" rx="8" ry="3.333"/>
			<path style="fill:#CFD3D4;" d="M79,77.667c-4.785,0-8-1.551-8-3v1.436c1.296,1.323,4.351,2.231,8,2.231s6.704-0.908,8-2.231
				v-1.436C87,76.115,83.785,77.667,79,77.667z"/>
			<path style="fill:#CFD3D4;" d="M79,82c-4.785,0-8-1.551-8-3v1.436c1.296,1.323,4.351,2.231,8,2.231s6.704-0.908,8-2.231V79
				C87,80.449,83.785,82,79,82z"/>
			<g>
				<path style="fill:#E2E4E5;" d="M79,77.667c-4.785,0-8-1.551-8-3v1.436c1.296,1.323,4.351,2.231,8,2.231V77.667z"/>
				<path style="fill:#E2E4E5;" d="M71,79v1.436c1.296,1.323,4.351,2.231,8,2.231V82C74.215,82,71,80.449,71,79z"/>
			</g>
		</g>
		<g>
			<path style="fill:#E2E4E5;" d="M79,29.667c-4.418,0-8-1.492-8-3.333V39c0,1.841,3.582,3.333,8,3.333s8-1.492,8-3.333V26.333
				C87,28.174,83.418,29.667,79,29.667z"/>
			<path style="fill:#F0F1F1;" d="M71,26.333V39c0,1.841,3.582,3.333,8,3.333V29.667C74.582,29.667,71,28.174,71,26.333z"/>
			<ellipse style="fill:#FFFFFF;" cx="79" cy="26.333" rx="8" ry="3.333"/>
			<path style="fill:#CFD3D4;" d="M79,33c-4.785,0-8-1.551-8-3v1.436c1.296,1.323,4.351,2.231,8,2.231s6.704-0.908,8-2.231V30
				C87,31.449,83.785,33,79,33z"/>
			<path style="fill:#CFD3D4;" d="M79,37.333c-4.785,0-8-1.551-8-3v1.436C72.296,37.092,75.351,38,79,38s6.704-0.908,8-2.231v-1.436
				C87,35.782,83.785,37.333,79,37.333z"/>
			<g>
				<path style="fill:#E2E4E5;" d="M79,33c-4.785,0-8-1.551-8-3v1.436c1.296,1.323,4.351,2.231,8,2.231V33z"/>
				<path style="fill:#E2E4E5;" d="M71,34.333v1.436C72.296,37.092,75.351,38,79,38v-0.667C74.215,37.333,71,35.782,71,34.333z"/>
			</g>
		</g>
		<g>
			<path style="fill:#E2E4E5;" d="M31,74.333c-4.418,0-8-1.492-8-3.333v12.667C23,85.508,26.582,87,31,87s8-1.492,8-3.333V71
				C39,72.841,35.418,74.333,31,74.333z"/>
			<path style="fill:#F0F1F1;" d="M23,71v12.667C23,85.508,26.582,87,31,87V74.333C26.582,74.333,23,72.841,23,71z"/>
			<ellipse style="fill:#FFFFFF;" cx="31" cy="71" rx="8" ry="3.333"/>
			<path style="fill:#CFD3D4;" d="M31,77.667c-4.785,0-8-1.551-8-3v1.436c1.296,1.323,4.351,2.231,8,2.231s6.704-0.908,8-2.231
				v-1.436C39,76.115,35.785,77.667,31,77.667z"/>
			<path style="fill:#CFD3D4;" d="M31,82c-4.785,0-8-1.551-8-3v1.436c1.296,1.323,4.351,2.231,8,2.231s6.704-0.908,8-2.231V79
				C39,80.449,35.785,82,31,82z"/>
			<g>
				<path style="fill:#E2E4E5;" d="M31,77.667c-4.785,0-8-1.551-8-3v1.436c1.296,1.323,4.351,2.231,8,2.231V77.667z"/>
				<path style="fill:#E2E4E5;" d="M23,79v1.436c1.296,1.323,4.351,2.231,8,2.231V82C26.215,82,23,80.449,23,79z"/>
			</g>
		</g>
		<g>
			<path style="fill:#E2E4E5;" d="M31,29.667c-4.418,0-8-1.492-8-3.333V39c0,1.841,3.582,3.333,8,3.333s8-1.492,8-3.333V26.333
				C39,28.174,35.418,29.667,31,29.667z"/>
			<path style="fill:#F0F1F1;" d="M23,26.333V39c0,1.841,3.582,3.333,8,3.333V29.667C26.582,29.667,23,28.174,23,26.333z"/>
			<ellipse style="fill:#FFFFFF;" cx="31" cy="26.333" rx="8" ry="3.333"/>
			<path style="fill:#CFD3D4;" d="M31,33c-4.785,0-8-1.551-8-3v1.436c1.296,1.323,4.351,2.231,8,2.231s6.704-0.908,8-2.231V30
				C39,31.449,35.785,33,31,33z"/>
			<path style="fill:#CFD3D4;" d="M31,37.333c-4.785,0-8-1.551-8-3v1.436C24.296,37.092,27.351,38,31,38s6.704-0.908,8-2.231v-1.436
				C39,35.782,35.785,37.333,31,37.333z"/>
			<g>
				<path style="fill:#E2E4E5;" d="M31,33c-4.785,0-8-1.551-8-3v1.436c1.296,1.323,4.351,2.231,8,2.231V33z"/>
				<path style="fill:#E2E4E5;" d="M23,34.333v1.436C24.296,37.092,27.351,38,31,38v-0.667C26.215,37.333,23,35.782,23,34.333z"/>
			</g>
		</g>
	</g>
</g>
</svg>
