<?xml version="1.0" encoding="UTF-8" standalone="no"?>
<!-- Generator: Adobe Illustrator 17.1.0, SVG Export Plug-In . SVG Version: 6.00 Build 0)  -->

<svg
   xmlns:dc="http://purl.org/dc/elements/1.1/"
   xmlns:cc="http://creativecommons.org/ns#"
   xmlns:rdf="http://www.w3.org/1999/02/22-rdf-syntax-ns#"
   xmlns:svg="http://www.w3.org/2000/svg"
   xmlns="http://www.w3.org/2000/svg"
   xmlns:sodipodi="http://sodipodi.sourceforge.net/DTD/sodipodi-0.dtd"
   xmlns:inkscape="http://www.inkscape.org/namespaces/inkscape"
   version="1.0"
   x="0px"
   y="0px"
   width="110px"
   height="110px"
   viewBox="0 0 110 110"
   style="enable-background:new 0 0 110 110;"
   xml:space="preserve"
   id="svg8894"
   inkscape:version="0.48.4 r9939"
   sodipodi:docname="Database-Cloud.svg"><metadata
     id="metadata8958"><rdf:RDF><cc:Work
         rdf:about=""><dc:format>image/svg+xml</dc:format><dc:type
           rdf:resource="http://purl.org/dc/dcmitype/StillImage" /></cc:Work></rdf:RDF></metadata><defs
     id="defs8956" /><sodipodi:namedview
     pagecolor="#ffffff"
     bordercolor="#666666"
     borderopacity="1"
     objecttolerance="10"
     gridtolerance="10"
     guidetolerance="10"
     inkscape:pageopacity="0"
     inkscape:pageshadow="2"
     inkscape:window-width="3070"
     inkscape:window-height="1752"
     id="namedview8954"
     showgrid="false"
     inkscape:zoom="12.136524"
     inkscape:cx="85.211812"
     inkscape:cy="82.21379"
     inkscape:window-x="130"
     inkscape:window-y="48"
     inkscape:window-maximized="1"
     inkscape:current-layer="svg8894" /><g
     id="Artboard" /><g
     id="Multicolor"><circle
       style="fill:#AA4643;"
       cx="55"
       cy="55"
       r="55"
       id="circle8898" /><g
       id="g8900"><path
         style="fill:#3E3E3F;"
         d="M65,85c0,1.105-0.895,2-2,2H47c-1.105,0-2-0.895-2-2V57c0-1.105,0.895-2,2-2h16    c1.105,0,2,0.895,2,2V85z"
         id="path8902" /><path
         style="fill:#3E3E3F;"
         d="M87,85c0,1.105-0.895,2-2,2H69c-1.105,0-2-0.895-2-2V57c0-1.105,0.895-2,2-2h16    c1.105,0,2,0.895,2,2V85z"
         id="path8904" /><path
         style="fill:#3E3E3F;"
         d="M43,85c0,1.105-0.895,2-2,2H25c-1.105,0-2-0.895-2-2V57c0-1.105,0.895-2,2-2h16    c1.105,0,2,0.895,2,2V85z"
         id="path8906" /><circle
         style="fill:#FA5655;"
         cx="38.5"
         cy="59.5"
         r="1.5"
         id="circle8908" /><circle
         style="fill:#F99134;"
         cx="33.5"
         cy="59.5"
         r="1.5"
         id="circle8910" /><circle
         style="fill:#FACB1B;"
         cx="28.5"
         cy="59.5"
         r="1.5"
         id="circle8912" /><path
         style="fill:#F0F1F1;"
         d="M76,41.562c0-3.954-2.442-7.332-5.898-8.723c-2.738-6.696-7.162-9.417-12.579-9.417    c-5.092,0-9.506,2.902-11.67,7.147c-3.443-1.466-7.325,0.969-7.468,4.74C35.251,36.414,33,39.393,33,42.906    c0,4.453,3.61,8.062,8.062,8.062h26.875C67.937,50.969,76,49.473,76,41.562z"
         id="path8914" /><path
         style="fill:#FFFFFF;"
         d="M57.523,23.422c-5.092,0-9.506,2.902-11.67,7.147c-3.443-1.466-7.325,0.969-7.468,4.74    C35.251,36.414,33,39.393,33,42.906c0,4.228,3.257,7.69,7.398,8.029l24.923-24.924C63.083,24.225,60.45,23.422,57.523,23.422z"
         id="path8916" /><circle
         style="fill:#FA5655;"
         cx="60.5"
         cy="59.5"
         r="1.5"
         id="circle8918" /><circle
         style="fill:#F99134;"
         cx="55.5"
         cy="59.5"
         r="1.5"
         id="circle8920" /><circle
         style="fill:#FACB1B;"
         cx="50.5"
         cy="59.5"
         r="1.5"
         id="circle8922" /><circle
         style="fill:#FA5655;"
         cx="82.5"
         cy="59.5"
         r="1.5"
         id="circle8924" /><circle
         style="fill:#F99134;"
         cx="77.5"
         cy="59.5"
         r="1.5"
         id="circle8926" /><circle
         style="fill:#FACB1B;"
         cx="72.5"
         cy="59.5"
         r="1.5"
         id="circle8928" /><rect
         x="23"
         y="80"
         style="fill:#818284;"
         width="20"
         height="2"
         id="rect8930" /><rect
         x="23"
         y="75"
         style="fill:#818284;"
         width="20"
         height="2"
         id="rect8932" /><rect
         x="23"
         y="70"
         style="fill:#818284;"
         width="20"
         height="2"
         id="rect8934" /><rect
         x="23"
         y="65"
         style="fill:#818284;"
         width="20"
         height="2"
         id="rect8936" /><rect
         x="45"
         y="80"
         style="fill:#818284;"
         width="20"
         height="2"
         id="rect8938" /><rect
         x="45"
         y="75"
         style="fill:#818284;"
         width="20"
         height="2"
         id="rect8940" /><rect
         x="45"
         y="70"
         style="fill:#818284;"
         width="20"
         height="2"
         id="rect8942" /><rect
         x="45"
         y="65"
         style="fill:#818284;"
         width="20"
         height="2"
         id="rect8944" /><rect
         x="67"
         y="80"
         style="fill:#818284;"
         width="20"
         height="2"
         id="rect8946" /><rect
         x="67"
         y="75"
         style="fill:#818284;"
         width="20"
         height="2"
         id="rect8948" /><rect
         x="67"
         y="70"
         style="fill:#818284;"
         width="20"
         height="2"
         id="rect8950" /><rect
         x="67"
         y="65"
         style="fill:#818284;"
         width="20"
         height="2"
         id="rect8952" /></g></g><path
     style="stroke-width:5.09999990000000025;stroke-miterlimit:4;stroke-dasharray:none;fill:#4299af;fill-opacity:1"
     d="M 53.242196,109.90846 C 39.317982,109.50601 26.098381,103.77658 16.157657,93.835849 7.5313772,85.209573 2.0394577,74.061814 0.51183088,62.077217 c -0.58994982,-4.628297 -0.58994982,-9.522974 0,-14.151271 C 2.0427301,35.915676 7.5534819,24.748058 16.213747,16.105786 24.834576,7.5028675 35.873061,2.0787999 47.968858,0.50202607 c 4.397101,-0.57319381 9.513198,-0.57306151 14.048503,3.6328e-4 8.939395,1.13025905 17.598696,4.53562805 24.950407,9.81203165 4.945675,3.54957 9.439812,8.073173 12.921204,13.00593 7.920988,11.223189 11.332518,24.906423 9.624478,38.602488 -1.10116,8.829624 -4.46498,17.481679 -9.626414,24.759973 -7.301193,10.295642 -17.999539,17.868408 -29.959666,21.206808 -5.527063,1.54275 -10.854602,2.18735 -16.685174,2.01884 l 0,0 z M 41.66557,86.921603 c 0.433562,-0.118221 1.120153,-0.815744 1.258267,-1.278298 0.07844,-0.262695 0.100858,-3.57827 0.09946,-14.707673 -0.0018,-14.277269 -0.0029,-14.370883 -0.169649,-14.73931 -0.206936,-0.45715 -0.509428,-0.784078 -0.940886,-1.016895 l -0.329584,-0.177845 -8.569175,0 -8.569176,0 -0.329584,0.17817 c -0.43034,0.232639 -0.823779,0.649009 -0.990145,1.047854 -0.121022,0.290139 -0.134099,1.652585 -0.141561,14.748869 -0.0076,13.403223 0.0017,14.45232 0.131713,14.754351 0.224753,0.522225 0.512251,0.837629 0.972669,1.06706 l 0.430462,0.214509 8.408804,-8.23e-4 c 5.814429,0 8.510492,-0.02819 8.738389,-0.09033 l 0,3.62e-4 z m 21.99971,0 c 0.433562,-0.118221 1.120153,-0.815744 1.258267,-1.278298 0.07844,-0.262695 0.100858,-3.57827 0.09946,-14.707673 -0.0018,-14.277269 -0.0029,-14.370883 -0.169649,-14.73931 -0.206936,-0.45715 -0.509428,-0.784078 -0.940886,-1.016895 l -0.329584,-0.177845 -8.569176,0 -8.569175,0 -0.329584,0.17817 c -0.43034,0.232639 -0.823779,0.649009 -0.990145,1.047854 -0.121022,0.290139 -0.134099,1.652585 -0.141561,14.748869 -0.0076,13.403223 0.0017,14.45232 0.131713,14.754351 0.224752,0.522225 0.512251,0.837629 0.972669,1.06706 l 0.430462,0.214509 8.408804,-8.23e-4 c 5.814429,0 8.510492,-0.02819 8.738389,-0.09033 l 0,3.62e-4 z m 21.99971,0 c 0.433559,-0.118221 1.120156,-0.815744 1.258268,-1.278298 0.07843,-0.262695 0.100852,-3.57827 0.09945,-14.707673 -0.0018,-14.277269 -0.0029,-14.370883 -0.169645,-14.73931 -0.206938,-0.45715 -0.50943,-0.784078 -0.940887,-1.016895 l -0.329584,-0.177845 -8.569176,0 -8.569175,0 -0.329584,0.17817 c -0.43034,0.232639 -0.823779,0.649009 -0.990145,1.047854 -0.121022,0.290139 -0.134099,1.652585 -0.141561,14.748869 -0.0076,13.403223 0.0017,14.45232 0.131713,14.754351 0.224752,0.522225 0.512251,0.837629 0.972669,1.06706 l 0.430462,0.214509 8.408804,-8.23e-4 c 5.81443,0 8.51049,-0.02819 8.738389,-0.09033 l 0,3.62e-4 z M 68.875836,50.748423 c 3.835285,-1.225221 6.331007,-3.835888 6.995426,-7.317612 0.164417,-0.861589 0.181298,-2.607033 0.03352,-3.466484 -0.50575,-2.941463 -2.36694,-5.434562 -5.121087,-6.859791 l -0.676062,-0.349852 -0.322967,-0.741563 c -0.477047,-1.095343 -1.337716,-2.574615 -2.058831,-3.538611 -1.988504,-2.658254 -4.520244,-4.266657 -7.685981,-4.882868 -1.165983,-0.226959 -3.913578,-0.205717 -5.080861,0.03928 -1.777817,0.373142 -3.634685,1.174415 -5.070012,2.187804 -1.363655,0.962787 -2.93678,2.695921 -3.752825,4.134543 -0.154221,0.271881 -0.333319,0.488732 -0.397995,0.481891 -0.06468,-0.0068 -0.3586,-0.07756 -0.653166,-0.157145 -0.650374,-0.175726 -1.916084,-0.196956 -2.554273,-0.04284 -0.671771,0.162222 -1.585037,0.605268 -2.129647,1.033137 -1.124932,0.883797 -1.772298,2.058492 -2.029358,3.682425 -0.04555,0.287764 -0.08453,0.319076 -0.88997,0.714987 -2.924944,1.437736 -4.650481,4.38581 -4.487893,7.667548 0.162773,3.285466 2.295649,6.133932 5.4069,7.220939 1.290211,0.450772 0.758096,0.435796 15.767406,0.443777 l 13.903325,0.0074 0.804346,-0.256957 0,0 z"
     id="path11281"
     inkscape:connector-curvature="0" /></svg>