<?xml version="1.0" encoding="UTF-8" standalone="no"?>
<!-- Generator: Adobe Illustrator 17.1.0, SVG Export Plug-In . SVG Version: 6.00 Build 0)  -->

<svg
   xmlns:dc="http://purl.org/dc/elements/1.1/"
   xmlns:cc="http://creativecommons.org/ns#"
   xmlns:rdf="http://www.w3.org/1999/02/22-rdf-syntax-ns#"
   xmlns:svg="http://www.w3.org/2000/svg"
   xmlns="http://www.w3.org/2000/svg"
   xmlns:sodipodi="http://sodipodi.sourceforge.net/DTD/sodipodi-0.dtd"
   xmlns:inkscape="http://www.inkscape.org/namespaces/inkscape"
   version="1.0"
   x="0px"
   y="0px"
   width="110px"
   height="110px"
   viewBox="0 0 110 110"
   style="enable-background:new 0 0 110 110;"
   xml:space="preserve"
   id="svg8788"
   inkscape:version="0.48.4 r9939"
   sodipodi:docname="Database-Network.svg"><metadata
     id="metadata8892"><rdf:RDF><cc:Work
         rdf:about=""><dc:format>image/svg+xml</dc:format><dc:type
           rdf:resource="http://purl.org/dc/dcmitype/StillImage" /></cc:Work></rdf:RDF></metadata><defs
     id="defs8890" /><sodipodi:namedview
     pagecolor="#ffffff"
     bordercolor="#666666"
     borderopacity="1"
     objecttolerance="10"
     gridtolerance="10"
     guidetolerance="10"
     inkscape:pageopacity="0"
     inkscape:pageshadow="2"
     inkscape:window-width="3070"
     inkscape:window-height="1752"
     id="namedview8888"
     showgrid="false"
     inkscape:zoom="6.0682618"
     inkscape:cx="38.956766"
     inkscape:cy="36.305413"
     inkscape:window-x="130"
     inkscape:window-y="48"
     inkscape:window-maximized="1"
     inkscape:current-layer="svg8788" /><g
     id="Artboard" /><g
     id="Multicolor"><circle
       style="fill:#4299AF;"
       cx="55"
       cy="55"
       r="55"
       id="circle8792" /><g
       id="g8794"><polygon
         style="fill:#FFFFFF;"
         points="78,41 78,54 69,54 69,56 78,56 78,68 80,68 80,41   "
         id="polygon8796" /><polygon
         style="fill:#FFFFFF;"
         points="41,54 32,54 32,41 30,41 30,68 32,68 32,56 41,56   "
         id="polygon8798" /><path
         style="fill:#E2E4E5;"
         d="M55,49.833c-7.732,0-14-2.612-14-5.833v22.167C41,69.388,47.268,72,55,72s14-2.612,14-5.833V44    C69,47.222,62.732,49.833,55,49.833z"
         id="path8800" /><path
         style="fill:#F0F1F1;"
         d="M41,44v22.167C41,69.388,47.268,72,55,72V49.833C47.268,49.833,41,47.222,41,44z"
         id="path8802" /><ellipse
         style="fill:#FFFFFF;"
         cx="55"
         cy="44"
         rx="14"
         ry="5.833"
         id="ellipse8804" /><path
         style="fill:#CFD3D4;"
         d="M55,55.667c-8.374,0-14-2.715-14-5.25v2.513c2.268,2.315,7.614,3.904,14,3.904    s11.732-1.589,14-3.904v-2.513C69,52.952,63.374,55.667,55,55.667z"
         id="path8806" /><path
         style="fill:#CFD3D4;"
         d="M55,63.25c-8.374,0-14-2.715-14-5.25v2.513c2.268,2.315,7.614,3.904,14,3.904    s11.732-1.589,14-3.904V58C69,60.535,63.374,63.25,55,63.25z"
         id="path8808" /><g
         id="g8810"><path
           style="fill:#E2E4E5;"
           d="M55,55.667c-8.374,0-14-2.715-14-5.25v2.513c2.268,2.315,7.614,3.904,14,3.904V55.667z"
           id="path8812" /><path
           style="fill:#E2E4E5;"
           d="M41,58v2.513c2.268,2.315,7.614,3.904,14,3.904V63.25C46.626,63.25,41,60.535,41,58z"
           id="path8814" /></g><g
         id="g8816"><path
           style="fill:#E2E4E5;"
           d="M79,74.333c-4.418,0-8-1.492-8-3.333v12.667C71,85.508,74.582,87,79,87s8-1.492,8-3.333V71     C87,72.841,83.418,74.333,79,74.333z"
           id="path8818" /><path
           style="fill:#F0F1F1;"
           d="M71,71v12.667C71,85.508,74.582,87,79,87V74.333C74.582,74.333,71,72.841,71,71z"
           id="path8820" /><ellipse
           style="fill:#FFFFFF;"
           cx="79"
           cy="71"
           rx="8"
           ry="3.333"
           id="ellipse8822" /><path
           style="fill:#CFD3D4;"
           d="M79,77.667c-4.785,0-8-1.551-8-3v1.436c1.296,1.323,4.351,2.231,8,2.231s6.704-0.908,8-2.231     v-1.436C87,76.115,83.785,77.667,79,77.667z"
           id="path8824" /><path
           style="fill:#CFD3D4;"
           d="M79,82c-4.785,0-8-1.551-8-3v1.436c1.296,1.323,4.351,2.231,8,2.231s6.704-0.908,8-2.231V79     C87,80.449,83.785,82,79,82z"
           id="path8826" /><g
           id="g8828"><path
             style="fill:#E2E4E5;"
             d="M79,77.667c-4.785,0-8-1.551-8-3v1.436c1.296,1.323,4.351,2.231,8,2.231V77.667z"
             id="path8830" /><path
             style="fill:#E2E4E5;"
             d="M71,79v1.436c1.296,1.323,4.351,2.231,8,2.231V82C74.215,82,71,80.449,71,79z"
             id="path8832" /></g></g><g
         id="g8834"><path
           style="fill:#E2E4E5;"
           d="M79,29.667c-4.418,0-8-1.492-8-3.333V39c0,1.841,3.582,3.333,8,3.333s8-1.492,8-3.333V26.333     C87,28.174,83.418,29.667,79,29.667z"
           id="path8836" /><path
           style="fill:#F0F1F1;"
           d="M71,26.333V39c0,1.841,3.582,3.333,8,3.333V29.667C74.582,29.667,71,28.174,71,26.333z"
           id="path8838" /><ellipse
           style="fill:#FFFFFF;"
           cx="79"
           cy="26.333"
           rx="8"
           ry="3.333"
           id="ellipse8840" /><path
           style="fill:#CFD3D4;"
           d="M79,33c-4.785,0-8-1.551-8-3v1.436c1.296,1.323,4.351,2.231,8,2.231s6.704-0.908,8-2.231V30     C87,31.449,83.785,33,79,33z"
           id="path8842" /><path
           style="fill:#CFD3D4;"
           d="M79,37.333c-4.785,0-8-1.551-8-3v1.436C72.296,37.092,75.351,38,79,38s6.704-0.908,8-2.231v-1.436     C87,35.782,83.785,37.333,79,37.333z"
           id="path8844" /><g
           id="g8846"><path
             style="fill:#E2E4E5;"
             d="M79,33c-4.785,0-8-1.551-8-3v1.436c1.296,1.323,4.351,2.231,8,2.231V33z"
             id="path8848" /><path
             style="fill:#E2E4E5;"
             d="M71,34.333v1.436C72.296,37.092,75.351,38,79,38v-0.667C74.215,37.333,71,35.782,71,34.333z"
             id="path8850" /></g></g><g
         id="g8852"><path
           style="fill:#E2E4E5;"
           d="M31,74.333c-4.418,0-8-1.492-8-3.333v12.667C23,85.508,26.582,87,31,87s8-1.492,8-3.333V71     C39,72.841,35.418,74.333,31,74.333z"
           id="path8854" /><path
           style="fill:#F0F1F1;"
           d="M23,71v12.667C23,85.508,26.582,87,31,87V74.333C26.582,74.333,23,72.841,23,71z"
           id="path8856" /><ellipse
           style="fill:#FFFFFF;"
           cx="31"
           cy="71"
           rx="8"
           ry="3.333"
           id="ellipse8858" /><path
           style="fill:#CFD3D4;"
           d="M31,77.667c-4.785,0-8-1.551-8-3v1.436c1.296,1.323,4.351,2.231,8,2.231s6.704-0.908,8-2.231     v-1.436C39,76.115,35.785,77.667,31,77.667z"
           id="path8860" /><path
           style="fill:#CFD3D4;"
           d="M31,82c-4.785,0-8-1.551-8-3v1.436c1.296,1.323,4.351,2.231,8,2.231s6.704-0.908,8-2.231V79     C39,80.449,35.785,82,31,82z"
           id="path8862" /><g
           id="g8864"><path
             style="fill:#E2E4E5;"
             d="M31,77.667c-4.785,0-8-1.551-8-3v1.436c1.296,1.323,4.351,2.231,8,2.231V77.667z"
             id="path8866" /><path
             style="fill:#E2E4E5;"
             d="M23,79v1.436c1.296,1.323,4.351,2.231,8,2.231V82C26.215,82,23,80.449,23,79z"
             id="path8868" /></g></g><g
         id="g8870"><path
           style="fill:#E2E4E5;"
           d="M31,29.667c-4.418,0-8-1.492-8-3.333V39c0,1.841,3.582,3.333,8,3.333s8-1.492,8-3.333V26.333     C39,28.174,35.418,29.667,31,29.667z"
           id="path8872" /><path
           style="fill:#F0F1F1;"
           d="M23,26.333V39c0,1.841,3.582,3.333,8,3.333V29.667C26.582,29.667,23,28.174,23,26.333z"
           id="path8874" /><ellipse
           style="fill:#FFFFFF;"
           cx="31"
           cy="26.333"
           rx="8"
           ry="3.333"
           id="ellipse8876" /><path
           style="fill:#CFD3D4;"
           d="M31,33c-4.785,0-8-1.551-8-3v1.436c1.296,1.323,4.351,2.231,8,2.231s6.704-0.908,8-2.231V30     C39,31.449,35.785,33,31,33z"
           id="path8878" /><path
           style="fill:#CFD3D4;"
           d="M31,37.333c-4.785,0-8-1.551-8-3v1.436C24.296,37.092,27.351,38,31,38s6.704-0.908,8-2.231v-1.436     C39,35.782,35.785,37.333,31,37.333z"
           id="path8880" /><g
           id="g8882"><path
             style="fill:#E2E4E5;"
             d="M31,33c-4.785,0-8-1.551-8-3v1.436c1.296,1.323,4.351,2.231,8,2.231V33z"
             id="path8884" /><path
             style="fill:#E2E4E5;"
             d="M23,34.333v1.436C24.296,37.092,27.351,38,31,38v-0.667C26.215,37.333,23,35.782,23,34.333z"
             id="path8886" /></g></g></g></g><path
     style="stroke-width:5.09999990000000025;stroke-miterlimit:4;stroke-dasharray:none;fill:#aa4643;fill-opacity:0"
     d="M 51.316153,109.81423 C 43.410768,109.09708 37.29897,107.43693 30.79957,104.24131 17.59198,97.747421 7.5982322,86.33507 2.9387573,72.42569 0.99422393,66.620904 0.15697899,61.390919 0.1555844,55.040152 0.154684,50.939847 0.34082659,48.728066 0.98201409,45.220358 3.635349,30.704906 11.83985,18.062197 24.045985,9.6799762 33.944782,2.8822572 45.331397,-0.32261984 57.743035,0.19560405 77.496927,1.0203895 95.670586,13.053007 104.41348,31.095692 c 3.23791,6.682042 5.01006,13.637549 5.3963,21.179849 0.97886,19.11477 -8.06573,37.270796 -23.969737,48.116649 -7.292601,4.97324 -15.137676,7.93002 -24.2244,9.13009 -1.747557,0.2308 -8.77709,0.43006 -10.29949,0.29195 l 0,0 z M 35.080913,86.606578 c 2.365905,-0.651936 3.74706,-1.616707 3.959097,-2.76553 0.05473,-0.296503 0.07692,-3.431193 0.04933,-6.965978 -0.0562,-7.198841 0.0093,-6.811148 -1.300119,-7.690591 -0.946975,-0.635996 -2.153366,-1.05698 -3.694086,-1.289094 -0.724932,-0.109213 -1.484911,-0.229791 -1.688841,-0.26795 l -0.370781,-0.06938 0,-5.764575 0,-5.764575 4.449379,0 4.44938,0 0,5.372027 c 0,6.017209 -0.01302,5.939261 1.191347,7.131708 2.163195,2.141783 7.111849,3.475035 12.898354,3.475035 4.475539,0 8.225822,-0.750312 11.145615,-2.229884 1.156343,-0.585964 2.536198,-1.98694 2.763576,-2.80588 0.110729,-0.398801 0.179023,-2.601853 0.179592,-5.793262 l 9.19e-4,-5.149744 4.366984,0 4.366984,0 0,5.756609 c 0,5.342147 -0.02076,5.76237 -0.288386,5.836612 -0.158612,0.044 -0.730679,0.130475 -1.271259,0.192167 -2.111463,0.24096 -4.440878,1.290648 -5.03823,2.270342 -0.305592,0.501189 -0.322183,0.870125 -0.322766,7.177511 -6.59e-4,7.542847 -0.02348,7.396456 1.286166,8.263932 1.485679,0.984072 3.79537,1.481712 6.870413,1.480282 3.374571,-0.0016 6.037157,-0.7313 7.26854,-1.992073 l 0.641468,-0.656781 0.04632,-6.881494 0.04632,-6.881497 -0.38073,-0.567538 c -0.559847,-0.83454 -2.467655,-1.748604 -4.326074,-2.072697 -0.81572,-0.142255 -1.649978,-0.2896 -1.853908,-0.327435 l -0.370782,-0.06879 0,-12.568789 0,-12.568789 1.722512,-0.273239 c 1.981435,-0.314313 3.836265,-1.087317 4.621974,-1.926218 l 0.494375,-0.527844 0.04659,-6.781054 c 0.03392,-4.937284 -0.0064,-6.908959 -0.148262,-7.25146 -0.467702,-1.129133 -2.733622,-2.194754 -5.478769,-2.57657 -4.340962,-0.603771 -9.264922,0.573558 -10.233659,2.44689 -0.373244,0.721773 -0.378698,13.457694 -0.0061,14.241022 0.520943,1.0952 2.580233,2.05327 5.239871,2.437813 l 1.434384,0.207391 0,5.734701 0,5.734702 -4.366983,0 -4.366984,0 0,-5.158588 0,-5.158586 -0.431346,-0.865598 c -0.944328,-1.895016 -3.993283,-3.399841 -8.381677,-4.136808 -8.12603,-1.364651 -17.319613,0.648898 -19.022312,4.166205 -0.326705,0.674883 -0.34407,0.974277 -0.34407,5.932064 l 0,5.221311 -4.44938,0 -4.449379,0 0,-5.737719 0,-5.737717 1.359532,-0.184564 c 2.752436,-0.373655 4.849282,-1.341649 5.441651,-2.512098 0.267397,-0.528344 0.288153,-1.137149 0.247187,-7.250841 -0.04464,-6.662189 -0.04539,-6.675013 -0.422923,-7.20431 -0.482861,-0.676968 -2.349294,-1.600046 -3.988778,-1.972726 -1.878891,-0.427099 -5.914987,-0.378286 -7.66282,0.09267 -1.73194,0.466679 -2.909341,1.054576 -3.531753,1.763464 l -0.505647,0.5759 0,6.841312 c 0,5.686084 0.04076,6.920139 0.24141,7.308145 0.541997,1.048106 2.693552,2.001885 5.320314,2.358479 l 1.359533,0.184564 0,12.558949 c 0,13.894118 0.09415,12.759001 -1.058264,12.759001 -0.789124,0 -3.016119,0.601713 -3.997813,1.080171 -0.469639,0.228892 -1.081429,0.675322 -1.359533,0.992066 l -0.505647,0.5759 0,6.841312 c 0,5.686084 0.04076,6.920139 0.24141,7.308145 0.48389,0.935739 2.483068,1.900052 4.811066,2.320638 1.281621,0.231544 5.916312,0.0734 7.056479,-0.240777 z"
     id="path10255"
     inkscape:connector-curvature="0" /><path
     style="fill:#aa4643;fill-opacity:0;stroke-width:5.0999999;stroke-miterlimit:4;stroke-dasharray:none"
     d="M 51.316153,109.81423 C 43.410768,109.09708 37.29897,107.43693 30.79957,104.24131 17.59198,97.747421 7.5982322,86.33507 2.9387573,72.42569 0.99422393,66.620904 0.15697899,61.390919 0.1555844,55.040152 0.154684,50.939847 0.34082659,48.728066 0.98201409,45.220358 3.635349,30.704906 11.83985,18.062197 24.045985,9.6799762 33.944782,2.8822572 45.331397,-0.32261984 57.743035,0.19560405 77.496927,1.0203895 95.670586,13.053007 104.41348,31.095692 c 3.23791,6.682042 5.01006,13.637549 5.3963,21.179849 0.97886,19.11477 -8.06573,37.270796 -23.969737,48.116649 -7.292601,4.97324 -15.137676,7.93002 -24.2244,9.13009 -1.747557,0.2308 -8.77709,0.43006 -10.29949,0.29195 l 0,0 z M 35.080913,86.606578 c 2.365905,-0.651936 3.74706,-1.616707 3.959097,-2.76553 0.05473,-0.296503 0.07692,-3.431193 0.04933,-6.965978 -0.0562,-7.198841 0.0093,-6.811148 -1.300119,-7.690591 -0.946975,-0.635996 -2.153366,-1.05698 -3.694086,-1.289094 -0.724932,-0.109213 -1.484911,-0.229791 -1.688841,-0.26795 l -0.370781,-0.06938 0,-5.764575 0,-5.764575 4.449379,0 4.44938,0 0,5.372027 c 0,6.017209 -0.01302,5.939261 1.191347,7.131708 2.163195,2.141783 7.111849,3.475035 12.898354,3.475035 4.475539,0 8.225822,-0.750312 11.145615,-2.229884 1.156343,-0.585964 2.536198,-1.98694 2.763576,-2.80588 0.110729,-0.398801 0.179023,-2.601853 0.179592,-5.793262 l 9.19e-4,-5.149744 4.366984,0 4.366984,0 0,5.756609 c 0,5.342147 -0.02076,5.76237 -0.288386,5.836612 -0.158612,0.044 -0.730679,0.130475 -1.271259,0.192167 -2.111463,0.24096 -4.440878,1.290648 -5.03823,2.270342 -0.305592,0.501189 -0.322183,0.870125 -0.322766,7.177511 -6.59e-4,7.542847 -0.02348,7.396456 1.286166,8.263932 1.485679,0.984072 3.79537,1.481712 6.870413,1.480282 3.374571,-0.0016 6.037157,-0.7313 7.26854,-1.992073 l 0.641468,-0.656781 0.04632,-6.881494 0.04632,-6.881497 -0.38073,-0.567538 c -0.559847,-0.83454 -2.467655,-1.748604 -4.326074,-2.072697 -0.81572,-0.142255 -1.649978,-0.2896 -1.853908,-0.327435 l -0.370782,-0.06879 0,-12.568789 0,-12.568789 1.722512,-0.273239 c 1.981435,-0.314313 3.836265,-1.087317 4.621974,-1.926218 l 0.494375,-0.527844 0.04659,-6.781054 c 0.03392,-4.937284 -0.0064,-6.908959 -0.148262,-7.25146 -0.467702,-1.129133 -2.733622,-2.194754 -5.478769,-2.57657 -4.340962,-0.603771 -9.264922,0.573558 -10.233659,2.44689 -0.373244,0.721773 -0.378698,13.457694 -0.0061,14.241022 0.520943,1.0952 2.580233,2.05327 5.239871,2.437813 l 1.434384,0.207391 0,5.734701 0,5.734702 -4.366983,0 -4.366984,0 0,-5.158588 0,-5.158586 -0.431346,-0.865598 c -0.944328,-1.895016 -3.993283,-3.399841 -8.381677,-4.136808 -8.12603,-1.364651 -17.319613,0.648898 -19.022312,4.166205 -0.326705,0.674883 -0.34407,0.974277 -0.34407,5.932064 l 0,5.221311 -4.44938,0 -4.449379,0 0,-5.737719 0,-5.737717 1.359532,-0.184564 c 2.752436,-0.373655 4.849282,-1.341649 5.441651,-2.512098 0.267397,-0.528344 0.288153,-1.137149 0.247187,-7.250841 -0.04464,-6.662189 -0.04539,-6.675013 -0.422923,-7.20431 -0.482861,-0.676968 -2.349294,-1.600046 -3.988778,-1.972726 -1.878891,-0.427099 -5.914987,-0.378286 -7.66282,0.09267 -1.73194,0.466679 -2.909341,1.054576 -3.531753,1.763464 l -0.505647,0.5759 0,6.841312 c 0,5.686084 0.04076,6.920139 0.24141,7.308145 0.541997,1.048106 2.693552,2.001885 5.320314,2.358479 l 1.359533,0.184564 0,12.558949 c 0,13.894118 0.09415,12.759001 -1.058264,12.759001 -0.789124,0 -3.016119,0.601713 -3.997813,1.080171 -0.469639,0.228892 -1.081429,0.675322 -1.359533,0.992066 l -0.505647,0.5759 0,6.841312 c 0,5.686084 0.04076,6.920139 0.24141,7.308145 0.48389,0.935739 2.483068,1.900052 4.811066,2.320638 1.281621,0.231544 5.916312,0.0734 7.056479,-0.240777 z"
     id="path10257"
     inkscape:connector-curvature="0" /><path
     style="fill:#aa4643;fill-opacity:1;stroke-width:5.09999990000000025;stroke-miterlimit:4;stroke-dasharray:none"
     d="M 51.316153,109.81423 C 43.410768,109.09708 37.29897,107.43693 30.79957,104.24131 17.59198,97.747421 7.5982322,86.33507 2.9387573,72.42569 0.99422393,66.620904 0.15697899,61.390919 0.1555844,55.040152 0.154684,50.939847 0.34082659,48.728066 0.98201409,45.220358 3.635349,30.704906 11.83985,18.062197 24.045985,9.6799762 33.944782,2.8822572 45.331397,-0.32261984 57.743035,0.19560405 77.496927,1.0203895 95.670586,13.053007 104.41348,31.095692 c 3.23791,6.682042 5.01006,13.637549 5.3963,21.179849 0.97886,19.11477 -8.06573,37.270796 -23.969737,48.116649 -7.292601,4.97324 -15.137676,7.93002 -24.2244,9.13009 -1.747557,0.2308 -8.77709,0.43006 -10.29949,0.29195 l 0,0 z M 35.080913,86.606578 c 2.365905,-0.651936 3.74706,-1.616707 3.959097,-2.76553 0.05473,-0.296503 0.07692,-3.431193 0.04933,-6.965978 -0.0562,-7.198841 0.0093,-6.811148 -1.300119,-7.690591 -0.946975,-0.635996 -2.153366,-1.05698 -3.694086,-1.289094 -0.724932,-0.109213 -1.484911,-0.229791 -1.688841,-0.26795 l -0.370781,-0.06938 0,-5.764575 0,-5.764575 4.449379,0 4.44938,0 0,5.372027 c 0,6.017209 -0.01302,5.939261 1.191347,7.131708 2.163195,2.141783 7.111849,3.475035 12.898354,3.475035 4.475539,0 8.225822,-0.750312 11.145615,-2.229884 1.156343,-0.585964 2.536198,-1.98694 2.763576,-2.80588 0.110729,-0.398801 0.179023,-2.601853 0.179592,-5.793262 l 9.19e-4,-5.149744 4.366984,0 4.366984,0 0,5.756609 c 0,5.342147 -0.02076,5.76237 -0.288386,5.836612 -0.158612,0.044 -0.730679,0.130475 -1.271259,0.192167 -2.111463,0.24096 -4.440878,1.290648 -5.03823,2.270342 -0.305592,0.501189 -0.322183,0.870125 -0.322766,7.177511 -6.59e-4,7.542847 -0.02348,7.396456 1.286166,8.263932 1.485679,0.984072 3.79537,1.481712 6.870413,1.480282 3.374571,-0.0016 6.037157,-0.7313 7.26854,-1.992073 l 0.641468,-0.656781 0.04632,-6.881494 0.04632,-6.881497 -0.38073,-0.567538 c -0.559847,-0.83454 -2.467655,-1.748604 -4.326074,-2.072697 -0.81572,-0.142255 -1.649978,-0.2896 -1.853908,-0.327435 l -0.370782,-0.06879 0,-12.568789 0,-12.568789 1.722512,-0.273239 c 1.981435,-0.314313 3.836265,-1.087317 4.621974,-1.926218 l 0.494375,-0.527844 0.04659,-6.781054 c 0.03392,-4.937284 -0.0064,-6.908959 -0.148262,-7.25146 -0.467702,-1.129133 -2.733622,-2.194754 -5.478769,-2.57657 -4.340962,-0.603771 -9.264922,0.573558 -10.233659,2.44689 -0.373244,0.721773 -0.378698,13.457694 -0.0061,14.241022 0.520943,1.0952 2.580233,2.05327 5.239871,2.437813 l 1.434384,0.207391 0,5.734701 0,5.734702 -4.366983,0 -4.366984,0 0,-5.158588 0,-5.158586 -0.431346,-0.865598 c -0.944328,-1.895016 -3.993283,-3.399841 -8.381677,-4.136808 -8.12603,-1.364651 -17.319613,0.648898 -19.022312,4.166205 -0.326705,0.674883 -0.34407,0.974277 -0.34407,5.932064 l 0,5.221311 -4.44938,0 -4.449379,0 0,-5.737719 0,-5.737717 1.359532,-0.184564 c 2.752436,-0.373655 4.849282,-1.341649 5.441651,-2.512098 0.267397,-0.528344 0.288153,-1.137149 0.247187,-7.250841 -0.04464,-6.662189 -0.04539,-6.675013 -0.422923,-7.20431 -0.482861,-0.676968 -2.349294,-1.600046 -3.988778,-1.972726 -1.878891,-0.427099 -5.914987,-0.378286 -7.66282,0.09267 -1.73194,0.466679 -2.909341,1.054576 -3.531753,1.763464 l -0.505647,0.5759 0,6.841312 c 0,5.686084 0.04076,6.920139 0.24141,7.308145 0.541997,1.048106 2.693552,2.001885 5.320314,2.358479 l 1.359533,0.184564 0,12.558949 c 0,13.894118 0.09415,12.759001 -1.058264,12.759001 -0.789124,0 -3.016119,0.601713 -3.997813,1.080171 -0.469639,0.228892 -1.081429,0.675322 -1.359533,0.992066 l -0.505647,0.5759 0,6.841312 c 0,5.686084 0.04076,6.920139 0.24141,7.308145 0.48389,0.935739 2.483068,1.900052 4.811066,2.320638 1.281621,0.231544 5.916312,0.0734 7.056479,-0.240777 z"
     id="path10259"
     inkscape:connector-curvature="0" /></svg>