<?xml version="1.0" encoding="UTF-8" standalone="no"?>
<!-- Created with Inkscape (http://www.inkscape.org/) -->

<svg
   xmlns:dc="http://purl.org/dc/elements/1.1/"
   xmlns:cc="http://creativecommons.org/ns#"
   xmlns:rdf="http://www.w3.org/1999/02/22-rdf-syntax-ns#"
   xmlns:svg="http://www.w3.org/2000/svg"
   xmlns="http://www.w3.org/2000/svg"
   version="1.1"
   width="123.10136"
   height="33"
   viewBox="0 0 123.10136 33"
   id="svg3075"
   xml:space="preserve"><metadata
     id="metadata3109"><rdf:RDF><cc:Work
         rdf:about=""><dc:format>image/svg+xml</dc:format><dc:type
           rdf:resource="http://purl.org/dc/dcmitype/StillImage" /><dc:title></dc:title></cc:Work></rdf:RDF></metadata><defs
     id="defs3107" /><g
     transform="matrix(0.75,0,0,0.75,-28.875,-32.25)"
     id="g3081"><g
       id="g3091"><path
         d="M 38.5,83.334 C 38.5,85.358 40.142,87 42.167,87 H 67.833 C 69.858,87 71.5,85.358 71.5,83.334 V 65 c 0,-2.025 -1.642,-3.666 -3.667,-3.666 H 42.167 C 40.142,61.334 38.5,62.975 38.5,65 v 18.334 z"
         id="path3093"
         style="fill:#fdd835" /></g><g
       id="g3095"><g
         id="g3097"><path
           d="m 66.917,61.334 h -5.5 V 54.917 C 61.417,51.379 58.538,48.5 55,48.5 c -3.538,0 -6.417,2.879 -6.417,6.417 v 6.417 h -5.5 V 54.917 C 43.083,48.346 48.429,43 55,43 c 6.57,0 11.917,5.346 11.917,11.917 v 6.417 z"
           id="path3099"
           style="fill:#787878" /></g></g><g
       id="g3101"><path
         d="m 57.509,69.921 c 0,-1.705 -1.383,-3.087 -3.088,-3.087 -1.705,0 -3.088,1.382 -3.088,3.087 0,1.188 0.678,2.206 1.661,2.724 L 51.333,81.5 h 6.176 l -1.661,-8.855 c 0.983,-0.518 1.661,-1.537 1.661,-2.724 z"
         id="path3103"
         style="fill:#5c1700" /></g></g><g
     transform="translate(4.000003,-4.2764975e-7)"
     id="text4095"
     style="font-size:32.57373428px;font-style:normal;font-weight:normal;line-height:125%;letter-spacing:0px;word-spacing:0px;fill:#2c3e50;fill-opacity:1;stroke:none;font-family:Sans"><path
       d="m 32.661742,28.160845 10.242913,0 0,2.449392 -13.678424,0 0,-1.988143 9.877094,-18.7044488 -9.813473,0 0,-2.4652973 13.2967,0 0,1.9245224 -9.92481,18.7839747"
       id="path6834"
       style="font-variant:normal;font-stretch:condensed;text-align:start;line-height:125%;writing-mode:lr-tb;text-anchor:start;fill:#2c3e50;fill-opacity:1;font-family:Roboto Condensed;-inkscape-font-specification:'Roboto Condensed, Condensed'" /><path
       d="m 51.811535,30.944245 c -2.046468,0 -3.684696,-0.710429 -4.914689,-2.131289 -1.23,-1.420856 -1.844998,-3.239343 -1.844997,-5.455464 l 0,-2.513013 c -10e-7,-2.247915 0.599092,-4.103513 1.797281,-5.5668 1.208787,-1.463257 2.740981,-2.194893 4.596587,-2.19491 1.951021,1.7e-5 3.451405,0.668033 4.501155,2.004048 1.049727,1.325443 1.574596,3.112119 1.57461,5.360033 l 0,2.22672 -9.256794,0 0,0.683922 c -4e-6,1.484485 0.3234,2.714482 0.970214,3.689993 0.657406,0.964915 1.585205,1.44737 2.7834,1.447368 0.890679,2e-6 1.654125,-0.137842 2.290341,-0.413534 0.636194,-0.286289 1.240589,-0.699823 1.813186,-1.240601 l 1.017929,2.004048 c -0.540787,0.615 -1.267122,1.118663 -2.179004,1.510989 -0.911906,0.392327 -1.961644,0.58849 -3.149219,0.58849 M 51.445717,15.563971 c -0.933109,1.5e-5 -1.68065,0.455962 -2.242625,1.367843 -0.561987,0.901304 -0.874788,2.046473 -0.938404,3.435511 l 6.05986,0 0,-0.652111 c -1.1e-5,-1.219383 -0.243889,-2.216104 -0.731637,-2.990167 -0.487767,-0.774036 -1.203498,-1.161061 -2.147194,-1.161076"
       id="path6836"
       style="font-variant:normal;font-stretch:condensed;text-align:start;line-height:125%;writing-mode:lr-tb;text-anchor:start;fill:#2c3e50;fill-opacity:1;font-family:Roboto Condensed;-inkscape-font-specification:'Roboto Condensed, Condensed'" /><path
       d="m 67.828016,16.120651 -1.510989,-0.07953 c -0.668023,1.5e-5 -1.224702,0.20148 -1.67004,0.604396 -0.434746,0.402944 -0.768754,0.970227 -1.002024,1.70185 l 0,12.262866 -3.228744,0 0,-17.209365 2.942452,0 0.238577,2.592538 c 0.360511,-0.911879 0.832363,-1.622308 1.415558,-2.131289 0.583181,-0.519551 1.256498,-0.779335 2.019953,-0.779352 0.21206,1.7e-5 0.42943,0.02122 0.652111,0.06362 0.222662,0.03183 0.397619,0.07424 0.524869,0.127241 l -0.381723,2.847021"
       id="path6838"
       style="font-variant:normal;font-stretch:condensed;text-align:start;line-height:125%;writing-mode:lr-tb;text-anchor:start;fill:#2c3e50;fill-opacity:1;font-family:Roboto Condensed;-inkscape-font-specification:'Roboto Condensed, Condensed'" /><path
       d="m 69.513961,20.924005 c -10e-7,-2.279726 0.59379,-4.156531 1.781376,-5.630421 1.198183,-1.47386 2.836412,-2.210798 4.914689,-2.210815 2.067659,1.7e-5 3.700586,0.736955 4.898785,2.210815 1.198173,1.463287 1.797266,3.340092 1.797281,5.630421 l 0,2.194909 c -1.5e-5,2.30095 -0.599108,4.183057 -1.797281,5.646326 -1.187596,1.452671 -2.815221,2.179005 -4.882879,2.179005 -2.088882,0 -3.732412,-0.726334 -4.930595,-2.179005 -1.187586,-1.463269 -1.781377,-3.345376 -1.781376,-5.646326 l 0,-2.194909 m 3.228744,2.194909 c -4e-6,1.569314 0.286288,2.857629 0.858878,3.86495 0.572579,1.007329 1.447361,1.510991 2.624349,1.510989 1.145161,2e-6 2.004038,-0.50366 2.576633,-1.510989 0.583177,-1.007321 0.874771,-2.295636 0.874783,-3.86495 l 0,-2.194909 c -1.2e-5,-1.54809 -0.291606,-2.825802 -0.874783,-3.83314 -0.572595,-1.017915 -1.436774,-1.526879 -2.592539,-1.526894 -1.166383,1.5e-5 -2.035864,0.503678 -2.608443,1.510989 -0.57259,1.007338 -0.858882,2.290352 -0.858878,3.849045 l 0,2.194909"
       id="path6840"
       style="font-variant:normal;font-stretch:condensed;text-align:start;line-height:125%;writing-mode:lr-tb;text-anchor:start;fill:#2c3e50;fill-opacity:1;font-family:Roboto Condensed;-inkscape-font-specification:'Roboto Condensed, Condensed'" /><path
       d="m 84.989665,30.610237 4.628397,-23.1578891 5.582705,0 c 2.23731,2.32e-5 4.018685,0.970236 5.344133,2.9106411 1.32541,1.940446 1.70713,4.326215 1.14517,7.157315 l -0.66802,3.292365 c -0.62562,3.149225 -1.760185,5.572106 -3.403701,7.26865 -1.643543,1.685946 -3.647589,2.528918 -6.012144,2.528918 l -6.61654,0 m 7.332271,-20.6766867 -3.642278,18.2272947 3.324175,0 c 1.378437,2e-6 2.581925,-0.668013 3.610468,-2.004048 1.039123,-1.34663 1.781363,-3.128004 2.22672,-5.344128 l 0.668016,-3.340081 C 98.954366,15.20347 98.81122,13.379682 98.079598,12.001219 97.347948,10.622793 96.192176,9.933571 94.612277,9.9335503 l -2.290341,0"
       id="path6842"
       style="font-style:italic;fill:#ffffff;fill-opacity:1;font-family:Roboto Condensed;-inkscape-font-specification:'Roboto Condensed, Italic Condensed'" /><path
       d="m 102.67618,30.610237 4.6284,-23.1578891 6.21891,0 c 1.96162,2.32e-5 3.4514,0.5301941 4.46935,1.5905144 1.02851,1.0603637 1.34131,2.6084627 0.9384,4.6443017 -0.24389,1.176997 -0.71044,2.17902 -1.39965,3.006072 -0.67864,0.816478 -1.53221,1.404967 -2.56073,1.765471 1.13455,0.275701 1.9139,0.927812 2.33806,1.956333 0.43472,1.028542 0.51425,2.242633 0.23857,3.642278 -0.45596,2.269138 -1.35195,3.928573 -2.68797,4.97831 -1.33604,1.04974 -3.04319,1.574609 -5.12145,1.574609 l -7.06189,0 m 5.36004,-10.799592 -1.67004,8.3502 3.86495,0 c 0.99671,2e-6 1.86619,-0.355212 2.60844,-1.065645 0.75283,-0.721029 1.2618,-1.728353 1.5269,-3.021977 0.27567,-1.389041 0.24386,-2.444081 -0.0954,-3.165124 -0.32871,-0.731626 -1.00733,-1.097444 -2.03585,-1.097454 l -4.19896,0 m 0.46125,-2.322151 3.45141,0 c 0.89068,-0.0318 1.68064,-0.371107 2.36987,-1.01793 0.69981,-0.657397 1.16636,-1.56399 1.39965,-2.719779 0.26507,-1.357221 0.16964,-2.332735 -0.28629,-2.926547 -0.44536,-0.593771 -1.24592,-0.890667 -2.40168,-0.8906877 l -3.02197,0 -1.51099,7.5549437"
       id="path6844"
       style="font-style:italic;fill:#ffffff;fill-opacity:1;font-family:Roboto Condensed;-inkscape-font-specification:'Roboto Condensed, Italic Condensed'" /></g></svg>