<?xml version="1.0" encoding="UTF-8" standalone="no"?>
<!-- Generator: Adobe Illustrator 17.1.0, SVG Export Plug-In . SVG Version: 6.00 Build 0)  -->

<svg
   xmlns:dc="http://purl.org/dc/elements/1.1/"
   xmlns:cc="http://creativecommons.org/ns#"
   xmlns:rdf="http://www.w3.org/1999/02/22-rdf-syntax-ns#"
   xmlns:svg="http://www.w3.org/2000/svg"
   xmlns="http://www.w3.org/2000/svg"
   xmlns:sodipodi="http://sodipodi.sourceforge.net/DTD/sodipodi-0.dtd"
   xmlns:inkscape="http://www.inkscape.org/namespaces/inkscape"
   version="1.0"
   x="0px"
   y="0px"
   width="110px"
   height="110px"
   viewBox="0 0 110 110"
   style="enable-background:new 0 0 110 110;"
   xml:space="preserve"
   id="svg8960"
   inkscape:version="0.48.4 r9939"
   sodipodi:docname="Traffic-Light.svg"><metadata
     id="metadata9485"><rdf:RDF><cc:Work
         rdf:about=""><dc:format>image/svg+xml</dc:format><dc:type
           rdf:resource="http://purl.org/dc/dcmitype/StillImage" /></cc:Work></rdf:RDF></metadata><defs
     id="defs9483" /><sodipodi:namedview
     pagecolor="#ffffff"
     bordercolor="#666666"
     borderopacity="1"
     objecttolerance="10"
     gridtolerance="10"
     guidetolerance="10"
     inkscape:pageopacity="0"
     inkscape:pageshadow="2"
     inkscape:window-width="3070"
     inkscape:window-height="1752"
     id="namedview9481"
     showgrid="false"
     inkscape:zoom="8.5818182"
     inkscape:cx="67.269849"
     inkscape:cy="23.885946"
     inkscape:window-x="130"
     inkscape:window-y="48"
     inkscape:window-maximized="1"
     inkscape:current-layer="svg8960" /><g
     id="Artboard"
     style="display:none;"><rect
       x="-863"
       y="-583"
       style="display:inline;fill:#8C8C8C;"
       width="1412"
       height="743"
       id="rect8963" /></g><g
     id="R-Multicolor"><circle
       style="fill:#25B7D3;"
       cx="55"
       cy="55"
       r="55"
       id="circle8966" /><g
       id="g8968"><path
         style="fill:#5B5C5F;"
         d="M78.063,47C79.685,47,81,48.315,81,49.937c0,0.687-0.241,1.352-0.681,1.88L71,63V47H78.063z"
         id="path8970" /><path
         style="fill:#5B5C5F;"
         d="M78.063,67C79.685,67,81,68.315,81,69.937c0,0.687-0.241,1.352-0.681,1.88L71,83V67H78.063z"
         id="path8972" /><path
         style="fill:#5B5C5F;"
         d="M39,47v16l-9.319-11.183C29.241,51.289,29,50.624,29,49.937C29,48.315,30.315,47,31.937,47H39z"
         id="path8974" /><path
         style="fill:#5B5C5F;"
         d="M78.063,27C79.685,27,81,28.315,81,29.937c0,0.687-0.241,1.352-0.681,1.88L71,43V27H78.063z"
         id="path8976" /><path
         style="fill:#5B5C5F;"
         d="M39,27v16l-9.319-11.183C29.241,31.289,29,30.624,29,29.937C29,28.315,30.315,27,31.937,27H39z"
         id="path8978" /><path
         style="fill:#5B5C5F;"
         d="M39,67v16l-9.319-11.183C29.241,71.289,29,70.624,29,69.937C29,68.315,30.315,67,31.937,67H39z"
         id="path8980" /><path
         style="fill:#3E3E3F;"
         d="M43,23c-2.209,0-4,1.791-4,4v4.07V43v40c0,2.21,1.79,4,4,4h24c2.21,0,4-1.79,4-4V43V31.07V27    c0-2.209-1.791-4-4-4H43z"
         id="path8982" /><circle
         style="fill:#DF2C2C;"
         cx="55"
         cy="35"
         r="8"
         id="circle8984" /><circle
         style="fill:#F37A10;"
         cx="55"
         cy="55"
         r="8"
         id="circle8986" /><circle
         style="fill:#17B198;"
         cx="55"
         cy="75"
         r="8"
         id="circle8988" /><path
         style="fill:#FA5655;"
         d="M55,27c-4.418,0-8,3.582-8,8c0,2.325,0.998,4.412,2.582,5.874l11.292-11.292    C59.412,27.998,57.325,27,55,27z"
         id="path8990" /><path
         style="fill:#F99134;"
         d="M55,47c-4.418,0-8,3.582-8,8c0,2.325,0.998,4.412,2.582,5.874l11.292-11.292    C59.412,47.998,57.325,47,55,47z"
         id="path8992" /><path
         style="fill:#4AC3AF;"
         d="M55,67c-4.418,0-8,3.582-8,8c0,2.325,0.998,4.412,2.582,5.874l11.292-11.292    C59.412,67.998,57.325,67,55,67z"
         id="path8994" /></g></g><g
     id="Multicolor"
     style="display:none;"><g
       style="display:inline;"
       id="g8997"><path
         style="fill:#5B5C5F;"
         d="M78.063,47C79.685,47,81,48.315,81,49.937c0,0.687-0.241,1.352-0.681,1.88L71,63V47H78.063z"
         id="path8999" /><path
         style="fill:#5B5C5F;"
         d="M78.063,67C79.685,67,81,68.315,81,69.937c0,0.687-0.241,1.352-0.681,1.88L71,83V67H78.063z"
         id="path9001" /><path
         style="fill:#5B5C5F;"
         d="M39,47v16l-9.319-11.183C29.241,51.289,29,50.624,29,49.937C29,48.315,30.315,47,31.937,47H39z"
         id="path9003" /><path
         style="fill:#5B5C5F;"
         d="M78.063,27C79.685,27,81,28.315,81,29.937c0,0.687-0.241,1.352-0.681,1.88L71,43V27H78.063z"
         id="path9005" /><path
         style="fill:#5B5C5F;"
         d="M39,27v16l-9.319-11.183C29.241,31.289,29,30.624,29,29.937C29,28.315,30.315,27,31.937,27H39z"
         id="path9007" /><path
         style="fill:#5B5C5F;"
         d="M39,67v16l-9.319-11.183C29.241,71.289,29,70.624,29,69.937C29,68.315,30.315,67,31.937,67H39z"
         id="path9009" /><path
         style="fill:#3E3E3F;"
         d="M43,23c-2.209,0-4,1.791-4,4v4.07V43v40c0,2.21,1.79,4,4,4h24c2.21,0,4-1.79,4-4V43V31.07V27    c0-2.209-1.791-4-4-4H43z"
         id="path9011" /><circle
         style="fill:#DF2C2C;"
         cx="55"
         cy="35"
         r="8"
         id="circle9013" /><circle
         style="fill:#F37A10;"
         cx="55"
         cy="55"
         r="8"
         id="circle9015" /><circle
         style="fill:#17B198;"
         cx="55"
         cy="75"
         r="8"
         id="circle9017" /><path
         style="fill:#FA5655;"
         d="M55,27c-4.418,0-8,3.582-8,8c0,2.325,0.998,4.412,2.582,5.874l11.292-11.292    C59.412,27.998,57.325,27,55,27z"
         id="path9019" /><path
         style="fill:#F99134;"
         d="M55,47c-4.418,0-8,3.582-8,8c0,2.325,0.998,4.412,2.582,5.874l11.292-11.292    C59.412,47.998,57.325,47,55,47z"
         id="path9021" /><path
         style="fill:#4AC3AF;"
         d="M55,67c-4.418,0-8,3.582-8,8c0,2.325,0.998,4.412,2.582,5.874l11.292-11.292    C59.412,67.998,57.325,67,55,67z"
         id="path9023" /></g></g><g
     id="Blue"
     style="display:none;"><g
       style="display:inline;"
       id="g9026"><g
         id="g9028"><path
           style="fill:#FFFFFF;"
           d="M78.066,47c1.622,0,2.937,1.315,2.937,2.937c0,0.687-0.241,1.352-0.681,1.88L71.003,63V47H78.066z     "
           id="path9030" /></g><g
         id="g9032"><path
           style="fill:#FFFFFF;"
           d="M78.066,67c1.622,0,2.937,1.315,2.937,2.937c0,0.687-0.241,1.352-0.681,1.88L71.003,83V67H78.066z     "
           id="path9034" /></g><g
         id="g9036"><path
           style="fill:#FFFFFF;"
           d="M39.003,47v16l-9.319-11.183c-0.44-0.528-0.681-1.193-0.681-1.88c0-1.622,1.315-2.937,2.937-2.937     H39.003z"
           id="path9038" /></g><g
         id="g9040"><path
           style="fill:#FFFFFF;"
           d="M78.066,27c1.622,0,2.937,1.315,2.937,2.937c0,0.687-0.241,1.352-0.681,1.88L71.003,43V27H78.066z     "
           id="path9042" /></g><g
         id="g9044"><path
           style="fill:#FFFFFF;"
           d="M39.003,27v16l-9.319-11.183c-0.44-0.528-0.681-1.193-0.681-1.88c0-1.622,1.315-2.937,2.937-2.937     H39.003z"
           id="path9046" /></g><g
         id="g9048"><path
           style="fill:#FFFFFF;"
           d="M39.003,67v16l-9.319-11.183c-0.44-0.528-0.681-1.193-0.681-1.88c0-1.622,1.315-2.937,2.937-2.937     H39.003z"
           id="path9050" /></g><g
         id="g9052"><path
           style="fill:#0C333D;"
           d="M43.003,23c-2.209,0-4,1.791-4,4v4.07V43v40c0,2.21,1.79,4,4,4h24c2.21,0,4-1.79,4-4V43V31.07V27     c0-2.209-1.791-4-4-4H43.003z"
           id="path9054" /></g><g
         id="g9056"><circle
           style="fill:#009FC7;"
           cx="55.003"
           cy="35"
           r="8"
           id="circle9058" /></g><g
         id="g9060"><circle
           style="fill:#009FC7;"
           cx="55.003"
           cy="55"
           r="8"
           id="circle9062" /></g><g
         id="g9064"><circle
           style="fill:#009FC7;"
           cx="55.003"
           cy="75"
           r="8"
           id="circle9066" /></g><g
         id="g9068"><path
           style="fill:#00B7E5;"
           d="M55.003,27c-4.418,0-8,3.581-8,8c0,2.325,0.998,4.412,2.582,5.874l11.292-11.292     C59.415,27.997,57.328,27,55.003,27z"
           id="path9070" /></g><g
         id="g9072"><path
           style="fill:#00B7E5;"
           d="M55.003,47c-4.418,0-8,3.582-8,8c0,2.325,0.998,4.412,2.582,5.874l11.292-11.292     C59.415,47.997,57.328,47,55.003,47z"
           id="path9074" /></g><g
         id="g9076"><path
           style="fill:#00B7E5;"
           d="M55.003,67c-4.418,0-8,3.582-8,8c0,2.325,0.998,4.412,2.582,5.874l11.292-11.292     C59.415,67.997,57.328,67,55.003,67z"
           id="path9078" /></g></g></g><g
     id="R-Blue"
     style="display:none;"><g
       style="display:inline;"
       id="g9081"><circle
         style="fill:#81D2EB;"
         cx="55"
         cy="55"
         r="55"
         id="circle9083" /></g><g
       style="display:inline;"
       id="g9085"><g
         id="g9087"><path
           style="fill:#FFFFFF;"
           d="M78.063,47C79.685,47,81,48.315,81,49.937c0,0.687-0.241,1.352-0.681,1.88L71,63V47H78.063z"
           id="path9089" /></g><g
         id="g9091"><path
           style="fill:#FFFFFF;"
           d="M78.063,67C79.685,67,81,68.315,81,69.937c0,0.687-0.241,1.352-0.681,1.88L71,83V67H78.063z"
           id="path9093" /></g><g
         id="g9095"><path
           style="fill:#FFFFFF;"
           d="M39,47v16l-9.319-11.183C29.241,51.289,29,50.624,29,49.937C29,48.315,30.315,47,31.937,47H39z"
           id="path9097" /></g><g
         id="g9099"><path
           style="fill:#FFFFFF;"
           d="M78.063,27C79.685,27,81,28.315,81,29.937c0,0.687-0.241,1.352-0.681,1.88L71,43V27H78.063z"
           id="path9101" /></g><g
         id="g9103"><path
           style="fill:#FFFFFF;"
           d="M39,27v16l-9.319-11.183C29.241,31.289,29,30.624,29,29.937C29,28.315,30.315,27,31.937,27H39z"
           id="path9105" /></g><g
         id="g9107"><path
           style="fill:#FFFFFF;"
           d="M39,67v16l-9.319-11.183C29.241,71.289,29,70.624,29,69.937C29,68.315,30.315,67,31.937,67H39z"
           id="path9109" /></g><g
         id="g9111"><path
           style="fill:#0C333D;"
           d="M43,23c-2.209,0-4,1.791-4,4v4.07V43v40c0,2.21,1.79,4,4,4h24c2.21,0,4-1.79,4-4V43V31.07V27     c0-2.209-1.791-4-4-4H43z"
           id="path9113" /></g><g
         id="g9115"><circle
           style="fill:#009FC7;"
           cx="55"
           cy="35"
           r="8"
           id="circle9117" /></g><g
         id="g9119"><circle
           style="fill:#009FC7;"
           cx="55"
           cy="55"
           r="8"
           id="circle9121" /></g><g
         id="g9123"><circle
           style="fill:#009FC7;"
           cx="55"
           cy="75"
           r="8"
           id="circle9125" /></g><g
         id="g9127"><path
           style="fill:#00B7E5;"
           d="M55,27c-4.418,0-8,3.581-8,8c0,2.325,0.998,4.412,2.582,5.874l11.292-11.292     C59.412,27.998,57.325,27,55,27z"
           id="path9129" /></g><g
         id="g9131"><path
           style="fill:#00B7E5;"
           d="M55,47c-4.418,0-8,3.582-8,8c0,2.325,0.998,4.412,2.582,5.874l11.292-11.292     C59.412,47.998,57.325,47,55,47z"
           id="path9133" /></g><g
         id="g9135"><path
           style="fill:#00B7E5;"
           d="M55,67c-4.418,0-8,3.581-8,8c0,2.325,0.998,4.412,2.582,5.873l11.292-11.292     C59.412,67.998,57.325,67,55,67z"
           id="path9137" /></g></g></g><g
     id="Green"
     style="display:none;"><g
       style="display:inline;"
       id="g9140"><g
         id="g9142"><path
           style="fill:#FFFFFF;"
           d="M78.066,47c1.622,0,2.937,1.315,2.937,2.937c0,0.687-0.241,1.352-0.681,1.88L71.003,63V47H78.066z     "
           id="path9144" /></g><g
         id="g9146"><path
           style="fill:#FFFFFF;"
           d="M78.066,67c1.622,0,2.937,1.315,2.937,2.937c0,0.687-0.241,1.352-0.681,1.88L71.003,83V67H78.066z     "
           id="path9148" /></g><g
         id="g9150"><path
           style="fill:#FFFFFF;"
           d="M39.003,47v16l-9.319-11.183c-0.44-0.528-0.681-1.193-0.681-1.88c0-1.622,1.315-2.937,2.937-2.937     H39.003z"
           id="path9152" /></g><g
         id="g9154"><path
           style="fill:#FFFFFF;"
           d="M78.066,27c1.622,0,2.937,1.315,2.937,2.937c0,0.687-0.241,1.352-0.681,1.88L71.003,43V27H78.066z     "
           id="path9156" /></g><g
         id="g9158"><path
           style="fill:#FFFFFF;"
           d="M39.003,27v16l-9.319-11.183c-0.44-0.528-0.681-1.193-0.681-1.88c0-1.622,1.315-2.937,2.937-2.937     H39.003z"
           id="path9160" /></g><g
         id="g9162"><path
           style="fill:#FFFFFF;"
           d="M39.003,67v16l-9.319-11.183c-0.44-0.528-0.681-1.193-0.681-1.88c0-1.622,1.315-2.937,2.937-2.937     H39.003z"
           id="path9164" /></g><g
         id="g9166"><path
           style="fill:#0A3631;"
           d="M43.003,23c-2.209,0-4,1.791-4,4v4.07V43v40c0,2.21,1.79,4,4,4h24c2.21,0,4-1.79,4-4V43V31.07V27     c0-2.209-1.791-4-4-4H43.003z"
           id="path9168" /></g><g
         id="g9170"><circle
           style="fill:#00B8A5;"
           cx="55.003"
           cy="35"
           r="8"
           id="circle9172" /></g><g
         id="g9174"><circle
           style="fill:#00B8A5;"
           cx="55.003"
           cy="55"
           r="8"
           id="circle9176" /></g><g
         id="g9178"><circle
           style="fill:#00B8A5;"
           cx="55.003"
           cy="75"
           r="8"
           id="circle9180" /></g><g
         id="g9182"><path
           style="fill:#00D6C1;"
           d="M55.003,27c-4.418,0-8,3.581-8,8c0,2.325,0.998,4.412,2.582,5.874l11.292-11.292     C59.415,27.998,57.328,27,55.003,27z"
           id="path9184" /></g><g
         id="g9186"><path
           style="fill:#00D6C1;"
           d="M55.003,47c-4.418,0-8,3.582-8,8c0,2.325,0.998,4.412,2.582,5.874l11.292-11.292     C59.415,47.998,57.328,47,55.003,47z"
           id="path9188" /></g><g
         id="g9190"><path
           style="fill:#00D6C1;"
           d="M55.003,67c-4.418,0-8,3.581-8,8c0,2.325,0.998,4.412,2.582,5.873l11.292-11.292     C59.415,67.998,57.328,67,55.003,67z"
           id="path9192" /></g></g></g><g
     id="R-Green"
     style="display:none;"><g
       style="display:inline;"
       id="g9195"><circle
         style="fill:#87E0C8;"
         cx="55"
         cy="55"
         r="55"
         id="circle9197" /></g><g
       style="display:inline;"
       id="g9199"><g
         id="g9201"><path
           style="fill:#FFFFFF;"
           d="M78.063,47C79.685,47,81,48.315,81,49.937c0,0.687-0.241,1.352-0.681,1.88L71,63V47H78.063z"
           id="path9203" /></g><g
         id="g9205"><path
           style="fill:#FFFFFF;"
           d="M78.063,67C79.685,67,81,68.315,81,69.937c0,0.687-0.241,1.352-0.681,1.88L71,83V67H78.063z"
           id="path9207" /></g><g
         id="g9209"><path
           style="fill:#FFFFFF;"
           d="M39,47v16l-9.319-11.183C29.241,51.289,29,50.624,29,49.937C29,48.315,30.315,47,31.937,47H39z"
           id="path9211" /></g><g
         id="g9213"><path
           style="fill:#FFFFFF;"
           d="M78.063,27C79.685,27,81,28.315,81,29.937c0,0.687-0.241,1.352-0.681,1.88L71,43V27H78.063z"
           id="path9215" /></g><g
         id="g9217"><path
           style="fill:#FFFFFF;"
           d="M39,27v16l-9.319-11.183C29.241,31.289,29,30.624,29,29.937C29,28.315,30.315,27,31.937,27H39z"
           id="path9219" /></g><g
         id="g9221"><path
           style="fill:#FFFFFF;"
           d="M39,67v16l-9.319-11.183C29.241,71.289,29,70.624,29,69.937C29,68.315,30.315,67,31.937,67H39z"
           id="path9223" /></g><g
         id="g9225"><path
           style="fill:#0A3631;"
           d="M43,23c-2.209,0-4,1.791-4,4v4.07V43v40c0,2.21,1.79,4,4,4h24c2.21,0,4-1.79,4-4V43V31.07V27     c0-2.209-1.791-4-4-4H43z"
           id="path9227" /></g><g
         id="g9229"><circle
           style="fill:#00B8A5;"
           cx="55"
           cy="35"
           r="8"
           id="circle9231" /></g><g
         id="g9233"><circle
           style="fill:#00B8A5;"
           cx="55"
           cy="55"
           r="8"
           id="circle9235" /></g><g
         id="g9237"><circle
           style="fill:#00B8A5;"
           cx="55"
           cy="75"
           r="8"
           id="circle9239" /></g><g
         id="g9241"><path
           style="fill:#00D6C1;"
           d="M55,27c-4.418,0-8,3.581-8,8c0,2.325,0.998,4.412,2.582,5.874l11.292-11.292     C59.412,27.998,57.325,27,55,27z"
           id="path9243" /></g><g
         id="g9245"><path
           style="fill:#00D6C1;"
           d="M55,47c-4.418,0-8,3.582-8,8c0,2.325,0.998,4.412,2.582,5.874l11.292-11.292     C59.412,47.998,57.325,47,55,47z"
           id="path9247" /></g><g
         id="g9249"><path
           style="fill:#00D6C1;"
           d="M55,67c-4.418,0-8,3.581-8,8c0,2.325,0.998,4.412,2.582,5.873l11.292-11.292     C59.412,67.998,57.325,67,55,67z"
           id="path9251" /></g></g></g><g
     id="Red"
     style="display:none;"><g
       style="display:inline;"
       id="g9254"><g
         id="g9256"><path
           style="fill:#FFFFFF;"
           d="M78.063,47C79.685,47,81,48.315,81,49.937c0,0.687-0.241,1.352-0.681,1.88L71,63V47H78.063z"
           id="path9258" /></g><g
         id="g9260"><path
           style="fill:#FFFFFF;"
           d="M78.063,67C79.685,67,81,68.315,81,69.937c0,0.687-0.241,1.352-0.681,1.88L71,83V67H78.063z"
           id="path9262" /></g><g
         id="g9264"><path
           style="fill:#FFFFFF;"
           d="M39,47v16l-9.319-11.183C29.241,51.288,29,50.624,29,49.937C29,48.315,30.315,47,31.937,47H39z"
           id="path9266" /></g><g
         id="g9268"><path
           style="fill:#FFFFFF;"
           d="M78.063,27C79.685,27,81,28.315,81,29.937c0,0.687-0.241,1.352-0.681,1.88L71,43V27H78.063z"
           id="path9270" /></g><g
         id="g9272"><path
           style="fill:#FFFFFF;"
           d="M39,27v16l-9.319-11.183C29.241,31.288,29,30.624,29,29.937C29,28.315,30.315,27,31.937,27H39z"
           id="path9274" /></g><g
         id="g9276"><path
           style="fill:#FFFFFF;"
           d="M39,67v16l-9.319-11.183C29.241,71.288,29,70.624,29,69.937C29,68.315,30.315,67,31.937,67H39z"
           id="path9278" /></g><g
         id="g9280"><path
           style="fill:#4A1410;"
           d="M43,23c-2.209,0-4,1.791-4,4v4.07V43v40c0,2.21,1.79,4,4,4h24c2.21,0,4-1.79,4-4V43V31.07V27     c0-2.209-1.791-4-4-4H43z"
           id="path9282" /></g><g
         id="g9284"><circle
           style="fill:#E54B44;"
           cx="55"
           cy="35"
           r="8"
           id="circle9286" /></g><g
         id="g9288"><circle
           style="fill:#E54B44;"
           cx="55"
           cy="55"
           r="8"
           id="circle9290" /></g><g
         id="g9292"><circle
           style="fill:#E54B44;"
           cx="55"
           cy="75"
           r="8"
           id="circle9294" /></g><g
         id="g9296"><path
           style="fill:#FF6C5E;"
           d="M55,27c-4.418,0-8,3.581-8,8c0,2.325,0.998,4.412,2.582,5.874l11.292-11.292     C59.412,27.997,57.325,27,55,27z"
           id="path9298" /></g><g
         id="g9300"><path
           style="fill:#FF6C5E;"
           d="M55,47c-4.418,0-8,3.582-8,8c0,2.325,0.998,4.412,2.582,5.874l11.292-11.292     C59.412,47.997,57.325,47,55,47z"
           id="path9302" /></g><g
         id="g9304"><path
           style="fill:#FF6C5E;"
           d="M55,67c-4.418,0-8,3.582-8,8c0,2.325,0.998,4.412,2.582,5.874l11.292-11.292     C59.412,67.997,57.325,67,55,67z"
           id="path9306" /></g></g></g><g
     id="R-Red"
     style="display:none;"><g
       style="display:inline;"
       id="g9309"><circle
         style="fill:#FABBAF;"
         cx="55"
         cy="55"
         r="55"
         id="circle9311" /></g><g
       style="display:inline;"
       id="g9313"><g
         id="g9315"><path
           style="fill:#FFFFFF;"
           d="M78.063,47C79.685,47,81,48.315,81,49.937c0,0.687-0.241,1.352-0.681,1.88L71,63V47H78.063z"
           id="path9317" /></g><g
         id="g9319"><path
           style="fill:#FFFFFF;"
           d="M78.063,67C79.685,67,81,68.315,81,69.937c0,0.687-0.241,1.352-0.681,1.88L71,83V67H78.063z"
           id="path9321" /></g><g
         id="g9323"><path
           style="fill:#FFFFFF;"
           d="M39,47v16l-9.319-11.183C29.241,51.289,29,50.624,29,49.937C29,48.315,30.315,47,31.937,47H39z"
           id="path9325" /></g><g
         id="g9327"><path
           style="fill:#FFFFFF;"
           d="M78.063,27C79.685,27,81,28.315,81,29.937c0,0.687-0.241,1.352-0.681,1.88L71,43V27H78.063z"
           id="path9329" /></g><g
         id="g9331"><path
           style="fill:#FFFFFF;"
           d="M39,27v16l-9.319-11.183C29.241,31.289,29,30.624,29,29.937C29,28.315,30.315,27,31.937,27H39z"
           id="path9333" /></g><g
         id="g9335"><path
           style="fill:#FFFFFF;"
           d="M39,67v16l-9.319-11.183C29.241,71.289,29,70.624,29,69.937C29,68.315,30.315,67,31.937,67H39z"
           id="path9337" /></g><g
         id="g9339"><path
           style="fill:#4A1410;"
           d="M43,23c-2.209,0-4,1.791-4,4v4.07V43v40c0,2.21,1.79,4,4,4h24c2.21,0,4-1.79,4-4V43V31.07V27     c0-2.209-1.791-4-4-4H43z"
           id="path9341" /></g><g
         id="g9343"><circle
           style="fill:#E54B44;"
           cx="55"
           cy="35"
           r="8"
           id="circle9345" /></g><g
         id="g9347"><circle
           style="fill:#E54B44;"
           cx="55"
           cy="55"
           r="8"
           id="circle9349" /></g><g
         id="g9351"><circle
           style="fill:#E54B44;"
           cx="55"
           cy="75"
           r="8"
           id="circle9353" /></g><g
         id="g9355"><path
           style="fill:#FF6C5E;"
           d="M55,27c-4.418,0-8,3.581-8,8c0,2.325,0.998,4.412,2.582,5.874l11.292-11.292     C59.412,27.998,57.325,27,55,27z"
           id="path9357" /></g><g
         id="g9359"><path
           style="fill:#FF6C5E;"
           d="M55,47c-4.418,0-8,3.582-8,8c0,2.325,0.998,4.412,2.582,5.874l11.292-11.292     C59.412,47.998,57.325,47,55,47z"
           id="path9361" /></g><g
         id="g9363"><path
           style="fill:#FF6C5E;"
           d="M55,67c-4.418,0-8,3.581-8,8c0,2.325,0.998,4.412,2.582,5.873l11.292-11.292     C59.412,67.998,57.325,67,55,67z"
           id="path9365" /></g></g></g><g
     id="Yellow"
     style="display:none;"><g
       style="display:inline;"
       id="g9368"><g
         id="g9370"><path
           style="fill:#FFFFFF;"
           d="M78.066,47c1.622,0,2.937,1.315,2.937,2.937c0,0.687-0.241,1.352-0.681,1.88L71.003,63V47H78.066z     "
           id="path9372" /></g><g
         id="g9374"><path
           style="fill:#FFFFFF;"
           d="M78.066,67c1.622,0,2.937,1.315,2.937,2.937c0,0.687-0.241,1.352-0.681,1.88L71.003,83V67H78.066z     "
           id="path9376" /></g><g
         id="g9378"><path
           style="fill:#FFFFFF;"
           d="M39.003,47v16l-9.319-11.183c-0.44-0.528-0.681-1.193-0.681-1.88c0-1.622,1.315-2.937,2.937-2.937     H39.003z"
           id="path9380" /></g><g
         id="g9382"><path
           style="fill:#FFFFFF;"
           d="M78.066,27c1.622,0,2.937,1.315,2.937,2.937c0,0.687-0.241,1.352-0.681,1.88L71.003,43V27H78.066z     "
           id="path9384" /></g><g
         id="g9386"><path
           style="fill:#FFFFFF;"
           d="M39.003,27v16l-9.319-11.183c-0.44-0.528-0.681-1.193-0.681-1.88c0-1.622,1.315-2.937,2.937-2.937     H39.003z"
           id="path9388" /></g><g
         id="g9390"><path
           style="fill:#FFFFFF;"
           d="M39.003,67v16l-9.319-11.183c-0.44-0.528-0.681-1.193-0.681-1.88c0-1.622,1.315-2.937,2.937-2.937     H39.003z"
           id="path9392" /></g><g
         id="g9394"><path
           style="fill:#3D320C;"
           d="M43.003,23c-2.209,0-4,1.791-4,4v4.07V43v40c0,2.21,1.79,4,4,4h24c2.21,0,4-1.79,4-4V43V31.07V27     c0-2.209-1.791-4-4-4H43.003z"
           id="path9396" /></g><g
         id="g9398"><circle
           style="fill:#FA9200;"
           cx="55.003"
           cy="35"
           r="8"
           id="circle9400" /></g><g
         id="g9402"><circle
           style="fill:#FA9200;"
           cx="55.003"
           cy="55"
           r="8"
           id="circle9404" /></g><g
         id="g9406"><circle
           style="fill:#FA9200;"
           cx="55.003"
           cy="75"
           r="8"
           id="circle9408" /></g><g
         id="g9410"><path
           style="fill:#FFAA00;"
           d="M55.003,27c-4.418,0-8,3.581-8,8c0,2.325,0.998,4.412,2.582,5.874l11.292-11.292     C59.415,27.997,57.328,27,55.003,27z"
           id="path9412" /></g><g
         id="g9414"><path
           style="fill:#FFAA00;"
           d="M55.003,47c-4.418,0-8,3.582-8,8c0,2.325,0.998,4.412,2.582,5.874l11.292-11.292     C59.415,47.997,57.328,47,55.003,47z"
           id="path9416" /></g><g
         id="g9418"><path
           style="fill:#FFAA00;"
           d="M55.003,67c-4.418,0-8,3.582-8,8c0,2.325,0.998,4.412,2.582,5.874l11.292-11.292     C59.415,67.997,57.328,67,55.003,67z"
           id="path9420" /></g></g></g><g
     id="R-Yellow"
     style="display:none;"><g
       style="display:inline;"
       id="g9423"><circle
         style="fill:#FFD75E;"
         cx="55"
         cy="55"
         r="55"
         id="circle9425" /></g><g
       style="display:inline;"
       id="g9427"><g
         id="g9429"><path
           style="fill:#FFFFFF;"
           d="M78.063,47C79.685,47,81,48.315,81,49.937c0,0.687-0.241,1.352-0.681,1.88L71,63V47H78.063z"
           id="path9431" /></g><g
         id="g9433"><path
           style="fill:#FFFFFF;"
           d="M78.063,67C79.685,67,81,68.315,81,69.937c0,0.687-0.241,1.352-0.681,1.88L71,83V67H78.063z"
           id="path9435" /></g><g
         id="g9437"><path
           style="fill:#FFFFFF;"
           d="M39,47v16l-9.319-11.183C29.241,51.289,29,50.624,29,49.937C29,48.315,30.315,47,31.937,47H39z"
           id="path9439" /></g><g
         id="g9441"><path
           style="fill:#FFFFFF;"
           d="M78.063,27C79.685,27,81,28.315,81,29.937c0,0.687-0.241,1.352-0.681,1.88L71,43V27H78.063z"
           id="path9443" /></g><g
         id="g9445"><path
           style="fill:#FFFFFF;"
           d="M39,27v16l-9.319-11.183C29.241,31.289,29,30.624,29,29.937C29,28.315,30.315,27,31.937,27H39z"
           id="path9447" /></g><g
         id="g9449"><path
           style="fill:#FFFFFF;"
           d="M39,67v16l-9.319-11.183C29.241,71.289,29,70.624,29,69.937C29,68.315,30.315,67,31.937,67H39z"
           id="path9451" /></g><g
         id="g9453"><path
           style="fill:#3D320C;"
           d="M43,23c-2.209,0-4,1.791-4,4v4.07V43v40c0,2.21,1.79,4,4,4h24c2.21,0,4-1.79,4-4V43V31.07V27     c0-2.209-1.791-4-4-4H43z"
           id="path9455" /></g><g
         id="g9457"><circle
           style="fill:#FA9200;"
           cx="55"
           cy="35"
           r="8"
           id="circle9459" /></g><g
         id="g9461"><circle
           style="fill:#FA9200;"
           cx="55"
           cy="55"
           r="8"
           id="circle9463" /></g><g
         id="g9465"><circle
           style="fill:#FA9200;"
           cx="55"
           cy="75"
           r="8"
           id="circle9467" /></g><g
         id="g9469"><path
           style="fill:#FFAA00;"
           d="M55,27c-4.418,0-8,3.581-8,8c0,2.325,0.998,4.412,2.582,5.874l11.292-11.292     C59.412,27.998,57.325,27,55,27z"
           id="path9471" /></g><g
         id="g9473"><path
           style="fill:#FFAA00;"
           d="M55,47c-4.418,0-8,3.582-8,8c0,2.325,0.998,4.412,2.582,5.874l11.292-11.292     C59.412,47.998,57.325,47,55,47z"
           id="path9475" /></g><g
         id="g9477"><path
           style="fill:#FFAA00;"
           d="M55,67c-4.418,0-8,3.581-8,8c0,2.325,0.998,4.412,2.582,5.873l11.292-11.292     C59.412,67.998,57.325,67,55,67z"
           id="path9479" /></g></g></g><path
     style="stroke-width:5.09999990000000025;stroke-miterlimit:4;stroke-dasharray:none;fill:#4299af;fill-opacity:1"
     d="M 52.121544,109.85009 C 41.868983,109.3516 31.59069,105.77691 23.223239,99.799552 11.468162,91.40221 3.4874134,78.869894 0.95087929,64.824859 -0.43969236,57.125129 -0.15413087,48.979758 1.770895,41.434687 4.8742627,29.271148 12.007986,18.607559 22.116248,11.022174 30.483828,4.743021 40.384133,1.0327288 50.950451,0.21611106 54.213988,-0.03611124 59.111678,0.1121807 62.434044,0.56381046 70.486641,1.6584497 78.396676,4.629822 85.156502,9.0994092 98.404814,17.859174 107.2032,31.741324 109.39687,47.346045 c 1.31293,9.339474 0.16395,19.054551 -3.28541,27.779418 -7.043408,17.815728 -22.802912,30.677427 -41.638221,33.981927 -2.326944,0.40825 -4.317261,0.62216 -6.991525,0.75142 -2.612239,0.12626 -2.583074,0.12631 -5.36017,-0.009 z M 68.691052,86.653545 c 1.216245,-0.570105 2.168008,-1.83099 2.282643,-3.024027 0.05115,-0.532356 0.228248,-0.76288 4.84794,-6.310518 2.637167,-3.166888 4.86546,-5.910267 4.951761,-6.096398 0.0863,-0.186132 0.184229,-0.66603 0.217614,-1.066439 0.106778,-1.280594 -0.515743,-2.368776 -1.659931,-2.901597 -0.57415,-0.267367 -0.645399,-0.271729 -4.457946,-0.272848 l -3.87447,-0.0011 0,-1.934135 0,-1.934136 4.732734,-5.669148 c 3.109884,-3.725203 4.833051,-5.883529 5.025289,-6.294348 0.247621,-0.529175 0.284048,-0.744083 0.237172,-1.399234 -0.06259,-0.874739 -0.269948,-1.351661 -0.832111,-1.913825 -0.831113,-0.831112 -0.856597,-0.835371 -5.230351,-0.874174 l -3.932733,-0.03489 0,-1.917992 0,-1.917992 4.786638,-5.737796 c 2.632651,-3.155787 4.8681,-5.892736 4.967664,-6.082107 0.289634,-0.55088 0.334962,-1.716054 0.09155,-2.353406 -0.270553,-0.708433 -0.917291,-1.415576 -1.572552,-1.719425 -0.492128,-0.228203 -0.761692,-0.245545 -4.384743,-0.282073 l -3.860378,-0.03892 -0.05616,-0.498212 c -0.120282,-1.06714 -0.860777,-2.186298 -1.868097,-2.823377 -1.014852,-0.641841 -0.732018,-0.630175 -14.432086,-0.595301 l -12.628413,0.03214 -0.654874,0.307064 c -0.360181,0.168885 -0.869534,0.500995 -1.131895,0.738023 -0.55095,0.49775 -1.138009,1.594125 -1.248652,2.331944 l -0.07645,0.509805 -3.804234,0.0377 c -3.72136,0.03688 -3.817672,0.04377 -4.421061,0.316227 -1.518353,0.685594 -2.171668,2.499871 -1.437813,3.992853 0.136736,0.278182 2.371389,3.048953 4.965894,6.157268 l 4.717281,5.651484 0.0019,1.946042 0.0019,1.946042 -3.932733,0.03489 c -3.781915,0.03355 -3.950912,0.04462 -4.406783,0.288633 -1.408882,0.75413 -2.013486,2.43184 -1.402954,3.893048 0.09605,0.229872 2.327395,3.000998 4.95855,6.158057 l 4.78392,5.740106 0,1.969578 0,1.969578 -3.816207,0.0051 c -2.799587,0.0038 -3.927655,0.04495 -4.234558,0.154656 -0.654677,0.234016 -1.203747,0.717272 -1.572133,1.383687 -0.439341,0.794775 -0.47578,1.977187 -0.0835,2.70972 0.137279,0.256356 2.366685,3.009269 4.954236,6.117585 l 4.704637,5.651483 0.148871,0.757415 c 0.275848,1.403433 1.118803,2.440626 2.419384,2.976869 l 0.683723,0.281908 12.934322,-0.02716 12.934323,-0.02716 0.663787,-0.311143 0,-2e-6 z"
     id="path10769"
     inkscape:connector-curvature="0" /></svg>