<?xml version="1.0" encoding="iso-8859-1"?>
<!-- Generator: Adobe Illustrator 17.1.0, SVG Export Plug-In . SVG Version: 6.00 Build 0)  -->
<!DOCTYPE svg PUBLIC "-//W3C//DTD SVG 1.0//EN" "http://www.w3.org/TR/2001/REC-SVG-20010904/DTD/svg10.dtd">
<svg version="1.0" xmlns="http://www.w3.org/2000/svg" xmlns:xlink="http://www.w3.org/1999/xlink" x="0px" y="0px" width="110px"
	 height="110px" viewBox="0 0 110 110" style="enable-background:new 0 0 110 110;" xml:space="preserve">
<g id="Artboard" style="display:none;">
	<rect x="-863" y="-583" style="display:inline;fill:#8C8C8C;" width="1412" height="743"/>
</g>
<g id="R-Multicolor">
	<circle style="fill:#25B7D3;" cx="55" cy="55" r="55"/>
	<g>
		<path style="fill:#5B5C5F;" d="M78.063,47C79.685,47,81,48.315,81,49.937c0,0.687-0.241,1.352-0.681,1.88L71,63V47H78.063z"/>
		<path style="fill:#5B5C5F;" d="M78.063,67C79.685,67,81,68.315,81,69.937c0,0.687-0.241,1.352-0.681,1.88L71,83V67H78.063z"/>
		<path style="fill:#5B5C5F;" d="M39,47v16l-9.319-11.183C29.241,51.289,29,50.624,29,49.937C29,48.315,30.315,47,31.937,47H39z"/>
		<path style="fill:#5B5C5F;" d="M78.063,27C79.685,27,81,28.315,81,29.937c0,0.687-0.241,1.352-0.681,1.88L71,43V27H78.063z"/>
		<path style="fill:#5B5C5F;" d="M39,27v16l-9.319-11.183C29.241,31.289,29,30.624,29,29.937C29,28.315,30.315,27,31.937,27H39z"/>
		<path style="fill:#5B5C5F;" d="M39,67v16l-9.319-11.183C29.241,71.289,29,70.624,29,69.937C29,68.315,30.315,67,31.937,67H39z"/>
		<path style="fill:#3E3E3F;" d="M43,23c-2.209,0-4,1.791-4,4v4.07V43v40c0,2.21,1.79,4,4,4h24c2.21,0,4-1.79,4-4V43V31.07V27
			c0-2.209-1.791-4-4-4H43z"/>
		<circle style="fill:#DF2C2C;" cx="55" cy="35" r="8"/>
		<circle style="fill:#F37A10;" cx="55" cy="55" r="8"/>
		<circle style="fill:#17B198;" cx="55" cy="75" r="8"/>
		<path style="fill:#FA5655;" d="M55,27c-4.418,0-8,3.582-8,8c0,2.325,0.998,4.412,2.582,5.874l11.292-11.292
			C59.412,27.998,57.325,27,55,27z"/>
		<path style="fill:#F99134;" d="M55,47c-4.418,0-8,3.582-8,8c0,2.325,0.998,4.412,2.582,5.874l11.292-11.292
			C59.412,47.998,57.325,47,55,47z"/>
		<path style="fill:#4AC3AF;" d="M55,67c-4.418,0-8,3.582-8,8c0,2.325,0.998,4.412,2.582,5.874l11.292-11.292
			C59.412,67.998,57.325,67,55,67z"/>
	</g>
</g>
<g id="Multicolor" style="display:none;">
	<g style="display:inline;">
		<path style="fill:#5B5C5F;" d="M78.063,47C79.685,47,81,48.315,81,49.937c0,0.687-0.241,1.352-0.681,1.88L71,63V47H78.063z"/>
		<path style="fill:#5B5C5F;" d="M78.063,67C79.685,67,81,68.315,81,69.937c0,0.687-0.241,1.352-0.681,1.88L71,83V67H78.063z"/>
		<path style="fill:#5B5C5F;" d="M39,47v16l-9.319-11.183C29.241,51.289,29,50.624,29,49.937C29,48.315,30.315,47,31.937,47H39z"/>
		<path style="fill:#5B5C5F;" d="M78.063,27C79.685,27,81,28.315,81,29.937c0,0.687-0.241,1.352-0.681,1.88L71,43V27H78.063z"/>
		<path style="fill:#5B5C5F;" d="M39,27v16l-9.319-11.183C29.241,31.289,29,30.624,29,29.937C29,28.315,30.315,27,31.937,27H39z"/>
		<path style="fill:#5B5C5F;" d="M39,67v16l-9.319-11.183C29.241,71.289,29,70.624,29,69.937C29,68.315,30.315,67,31.937,67H39z"/>
		<path style="fill:#3E3E3F;" d="M43,23c-2.209,0-4,1.791-4,4v4.07V43v40c0,2.21,1.79,4,4,4h24c2.21,0,4-1.79,4-4V43V31.07V27
			c0-2.209-1.791-4-4-4H43z"/>
		<circle style="fill:#DF2C2C;" cx="55" cy="35" r="8"/>
		<circle style="fill:#F37A10;" cx="55" cy="55" r="8"/>
		<circle style="fill:#17B198;" cx="55" cy="75" r="8"/>
		<path style="fill:#FA5655;" d="M55,27c-4.418,0-8,3.582-8,8c0,2.325,0.998,4.412,2.582,5.874l11.292-11.292
			C59.412,27.998,57.325,27,55,27z"/>
		<path style="fill:#F99134;" d="M55,47c-4.418,0-8,3.582-8,8c0,2.325,0.998,4.412,2.582,5.874l11.292-11.292
			C59.412,47.998,57.325,47,55,47z"/>
		<path style="fill:#4AC3AF;" d="M55,67c-4.418,0-8,3.582-8,8c0,2.325,0.998,4.412,2.582,5.874l11.292-11.292
			C59.412,67.998,57.325,67,55,67z"/>
	</g>
</g>
<g id="Blue" style="display:none;">
	<g style="display:inline;">
		<g>
			<path style="fill:#FFFFFF;" d="M78.066,47c1.622,0,2.937,1.315,2.937,2.937c0,0.687-0.241,1.352-0.681,1.88L71.003,63V47H78.066z
				"/>
		</g>
		<g>
			<path style="fill:#FFFFFF;" d="M78.066,67c1.622,0,2.937,1.315,2.937,2.937c0,0.687-0.241,1.352-0.681,1.88L71.003,83V67H78.066z
				"/>
		</g>
		<g>
			<path style="fill:#FFFFFF;" d="M39.003,47v16l-9.319-11.183c-0.44-0.528-0.681-1.193-0.681-1.88c0-1.622,1.315-2.937,2.937-2.937
				H39.003z"/>
		</g>
		<g>
			<path style="fill:#FFFFFF;" d="M78.066,27c1.622,0,2.937,1.315,2.937,2.937c0,0.687-0.241,1.352-0.681,1.88L71.003,43V27H78.066z
				"/>
		</g>
		<g>
			<path style="fill:#FFFFFF;" d="M39.003,27v16l-9.319-11.183c-0.44-0.528-0.681-1.193-0.681-1.88c0-1.622,1.315-2.937,2.937-2.937
				H39.003z"/>
		</g>
		<g>
			<path style="fill:#FFFFFF;" d="M39.003,67v16l-9.319-11.183c-0.44-0.528-0.681-1.193-0.681-1.88c0-1.622,1.315-2.937,2.937-2.937
				H39.003z"/>
		</g>
		<g>
			<path style="fill:#0C333D;" d="M43.003,23c-2.209,0-4,1.791-4,4v4.07V43v40c0,2.21,1.79,4,4,4h24c2.21,0,4-1.79,4-4V43V31.07V27
				c0-2.209-1.791-4-4-4H43.003z"/>
		</g>
		<g>
			<circle style="fill:#009FC7;" cx="55.003" cy="35" r="8"/>
		</g>
		<g>
			<circle style="fill:#009FC7;" cx="55.003" cy="55" r="8"/>
		</g>
		<g>
			<circle style="fill:#009FC7;" cx="55.003" cy="75" r="8"/>
		</g>
		<g>
			<path style="fill:#00B7E5;" d="M55.003,27c-4.418,0-8,3.581-8,8c0,2.325,0.998,4.412,2.582,5.874l11.292-11.292
				C59.415,27.997,57.328,27,55.003,27z"/>
		</g>
		<g>
			<path style="fill:#00B7E5;" d="M55.003,47c-4.418,0-8,3.582-8,8c0,2.325,0.998,4.412,2.582,5.874l11.292-11.292
				C59.415,47.997,57.328,47,55.003,47z"/>
		</g>
		<g>
			<path style="fill:#00B7E5;" d="M55.003,67c-4.418,0-8,3.582-8,8c0,2.325,0.998,4.412,2.582,5.874l11.292-11.292
				C59.415,67.997,57.328,67,55.003,67z"/>
		</g>
	</g>
</g>
<g id="R-Blue" style="display:none;">
	<g style="display:inline;">
		<circle style="fill:#81D2EB;" cx="55" cy="55" r="55"/>
	</g>
	<g style="display:inline;">
		<g>
			<path style="fill:#FFFFFF;" d="M78.063,47C79.685,47,81,48.315,81,49.937c0,0.687-0.241,1.352-0.681,1.88L71,63V47H78.063z"/>
		</g>
		<g>
			<path style="fill:#FFFFFF;" d="M78.063,67C79.685,67,81,68.315,81,69.937c0,0.687-0.241,1.352-0.681,1.88L71,83V67H78.063z"/>
		</g>
		<g>
			<path style="fill:#FFFFFF;" d="M39,47v16l-9.319-11.183C29.241,51.289,29,50.624,29,49.937C29,48.315,30.315,47,31.937,47H39z"/>
		</g>
		<g>
			<path style="fill:#FFFFFF;" d="M78.063,27C79.685,27,81,28.315,81,29.937c0,0.687-0.241,1.352-0.681,1.88L71,43V27H78.063z"/>
		</g>
		<g>
			<path style="fill:#FFFFFF;" d="M39,27v16l-9.319-11.183C29.241,31.289,29,30.624,29,29.937C29,28.315,30.315,27,31.937,27H39z"/>
		</g>
		<g>
			<path style="fill:#FFFFFF;" d="M39,67v16l-9.319-11.183C29.241,71.289,29,70.624,29,69.937C29,68.315,30.315,67,31.937,67H39z"/>
		</g>
		<g>
			<path style="fill:#0C333D;" d="M43,23c-2.209,0-4,1.791-4,4v4.07V43v40c0,2.21,1.79,4,4,4h24c2.21,0,4-1.79,4-4V43V31.07V27
				c0-2.209-1.791-4-4-4H43z"/>
		</g>
		<g>
			<circle style="fill:#009FC7;" cx="55" cy="35" r="8"/>
		</g>
		<g>
			<circle style="fill:#009FC7;" cx="55" cy="55" r="8"/>
		</g>
		<g>
			<circle style="fill:#009FC7;" cx="55" cy="75" r="8"/>
		</g>
		<g>
			<path style="fill:#00B7E5;" d="M55,27c-4.418,0-8,3.581-8,8c0,2.325,0.998,4.412,2.582,5.874l11.292-11.292
				C59.412,27.998,57.325,27,55,27z"/>
		</g>
		<g>
			<path style="fill:#00B7E5;" d="M55,47c-4.418,0-8,3.582-8,8c0,2.325,0.998,4.412,2.582,5.874l11.292-11.292
				C59.412,47.998,57.325,47,55,47z"/>
		</g>
		<g>
			<path style="fill:#00B7E5;" d="M55,67c-4.418,0-8,3.581-8,8c0,2.325,0.998,4.412,2.582,5.873l11.292-11.292
				C59.412,67.998,57.325,67,55,67z"/>
		</g>
	</g>
</g>
<g id="Green" style="display:none;">
	<g style="display:inline;">
		<g>
			<path style="fill:#FFFFFF;" d="M78.066,47c1.622,0,2.937,1.315,2.937,2.937c0,0.687-0.241,1.352-0.681,1.88L71.003,63V47H78.066z
				"/>
		</g>
		<g>
			<path style="fill:#FFFFFF;" d="M78.066,67c1.622,0,2.937,1.315,2.937,2.937c0,0.687-0.241,1.352-0.681,1.88L71.003,83V67H78.066z
				"/>
		</g>
		<g>
			<path style="fill:#FFFFFF;" d="M39.003,47v16l-9.319-11.183c-0.44-0.528-0.681-1.193-0.681-1.88c0-1.622,1.315-2.937,2.937-2.937
				H39.003z"/>
		</g>
		<g>
			<path style="fill:#FFFFFF;" d="M78.066,27c1.622,0,2.937,1.315,2.937,2.937c0,0.687-0.241,1.352-0.681,1.88L71.003,43V27H78.066z
				"/>
		</g>
		<g>
			<path style="fill:#FFFFFF;" d="M39.003,27v16l-9.319-11.183c-0.44-0.528-0.681-1.193-0.681-1.88c0-1.622,1.315-2.937,2.937-2.937
				H39.003z"/>
		</g>
		<g>
			<path style="fill:#FFFFFF;" d="M39.003,67v16l-9.319-11.183c-0.44-0.528-0.681-1.193-0.681-1.88c0-1.622,1.315-2.937,2.937-2.937
				H39.003z"/>
		</g>
		<g>
			<path style="fill:#0A3631;" d="M43.003,23c-2.209,0-4,1.791-4,4v4.07V43v40c0,2.21,1.79,4,4,4h24c2.21,0,4-1.79,4-4V43V31.07V27
				c0-2.209-1.791-4-4-4H43.003z"/>
		</g>
		<g>
			<circle style="fill:#00B8A5;" cx="55.003" cy="35" r="8"/>
		</g>
		<g>
			<circle style="fill:#00B8A5;" cx="55.003" cy="55" r="8"/>
		</g>
		<g>
			<circle style="fill:#00B8A5;" cx="55.003" cy="75" r="8"/>
		</g>
		<g>
			<path style="fill:#00D6C1;" d="M55.003,27c-4.418,0-8,3.581-8,8c0,2.325,0.998,4.412,2.582,5.874l11.292-11.292
				C59.415,27.998,57.328,27,55.003,27z"/>
		</g>
		<g>
			<path style="fill:#00D6C1;" d="M55.003,47c-4.418,0-8,3.582-8,8c0,2.325,0.998,4.412,2.582,5.874l11.292-11.292
				C59.415,47.998,57.328,47,55.003,47z"/>
		</g>
		<g>
			<path style="fill:#00D6C1;" d="M55.003,67c-4.418,0-8,3.581-8,8c0,2.325,0.998,4.412,2.582,5.873l11.292-11.292
				C59.415,67.998,57.328,67,55.003,67z"/>
		</g>
	</g>
</g>
<g id="R-Green" style="display:none;">
	<g style="display:inline;">
		<circle style="fill:#87E0C8;" cx="55" cy="55" r="55"/>
	</g>
	<g style="display:inline;">
		<g>
			<path style="fill:#FFFFFF;" d="M78.063,47C79.685,47,81,48.315,81,49.937c0,0.687-0.241,1.352-0.681,1.88L71,63V47H78.063z"/>
		</g>
		<g>
			<path style="fill:#FFFFFF;" d="M78.063,67C79.685,67,81,68.315,81,69.937c0,0.687-0.241,1.352-0.681,1.88L71,83V67H78.063z"/>
		</g>
		<g>
			<path style="fill:#FFFFFF;" d="M39,47v16l-9.319-11.183C29.241,51.289,29,50.624,29,49.937C29,48.315,30.315,47,31.937,47H39z"/>
		</g>
		<g>
			<path style="fill:#FFFFFF;" d="M78.063,27C79.685,27,81,28.315,81,29.937c0,0.687-0.241,1.352-0.681,1.88L71,43V27H78.063z"/>
		</g>
		<g>
			<path style="fill:#FFFFFF;" d="M39,27v16l-9.319-11.183C29.241,31.289,29,30.624,29,29.937C29,28.315,30.315,27,31.937,27H39z"/>
		</g>
		<g>
			<path style="fill:#FFFFFF;" d="M39,67v16l-9.319-11.183C29.241,71.289,29,70.624,29,69.937C29,68.315,30.315,67,31.937,67H39z"/>
		</g>
		<g>
			<path style="fill:#0A3631;" d="M43,23c-2.209,0-4,1.791-4,4v4.07V43v40c0,2.21,1.79,4,4,4h24c2.21,0,4-1.79,4-4V43V31.07V27
				c0-2.209-1.791-4-4-4H43z"/>
		</g>
		<g>
			<circle style="fill:#00B8A5;" cx="55" cy="35" r="8"/>
		</g>
		<g>
			<circle style="fill:#00B8A5;" cx="55" cy="55" r="8"/>
		</g>
		<g>
			<circle style="fill:#00B8A5;" cx="55" cy="75" r="8"/>
		</g>
		<g>
			<path style="fill:#00D6C1;" d="M55,27c-4.418,0-8,3.581-8,8c0,2.325,0.998,4.412,2.582,5.874l11.292-11.292
				C59.412,27.998,57.325,27,55,27z"/>
		</g>
		<g>
			<path style="fill:#00D6C1;" d="M55,47c-4.418,0-8,3.582-8,8c0,2.325,0.998,4.412,2.582,5.874l11.292-11.292
				C59.412,47.998,57.325,47,55,47z"/>
		</g>
		<g>
			<path style="fill:#00D6C1;" d="M55,67c-4.418,0-8,3.581-8,8c0,2.325,0.998,4.412,2.582,5.873l11.292-11.292
				C59.412,67.998,57.325,67,55,67z"/>
		</g>
	</g>
</g>
<g id="Red" style="display:none;">
	<g style="display:inline;">
		<g>
			<path style="fill:#FFFFFF;" d="M78.063,47C79.685,47,81,48.315,81,49.937c0,0.687-0.241,1.352-0.681,1.88L71,63V47H78.063z"/>
		</g>
		<g>
			<path style="fill:#FFFFFF;" d="M78.063,67C79.685,67,81,68.315,81,69.937c0,0.687-0.241,1.352-0.681,1.88L71,83V67H78.063z"/>
		</g>
		<g>
			<path style="fill:#FFFFFF;" d="M39,47v16l-9.319-11.183C29.241,51.288,29,50.624,29,49.937C29,48.315,30.315,47,31.937,47H39z"/>
		</g>
		<g>
			<path style="fill:#FFFFFF;" d="M78.063,27C79.685,27,81,28.315,81,29.937c0,0.687-0.241,1.352-0.681,1.88L71,43V27H78.063z"/>
		</g>
		<g>
			<path style="fill:#FFFFFF;" d="M39,27v16l-9.319-11.183C29.241,31.288,29,30.624,29,29.937C29,28.315,30.315,27,31.937,27H39z"/>
		</g>
		<g>
			<path style="fill:#FFFFFF;" d="M39,67v16l-9.319-11.183C29.241,71.288,29,70.624,29,69.937C29,68.315,30.315,67,31.937,67H39z"/>
		</g>
		<g>
			<path style="fill:#4A1410;" d="M43,23c-2.209,0-4,1.791-4,4v4.07V43v40c0,2.21,1.79,4,4,4h24c2.21,0,4-1.79,4-4V43V31.07V27
				c0-2.209-1.791-4-4-4H43z"/>
		</g>
		<g>
			<circle style="fill:#E54B44;" cx="55" cy="35" r="8"/>
		</g>
		<g>
			<circle style="fill:#E54B44;" cx="55" cy="55" r="8"/>
		</g>
		<g>
			<circle style="fill:#E54B44;" cx="55" cy="75" r="8"/>
		</g>
		<g>
			<path style="fill:#FF6C5E;" d="M55,27c-4.418,0-8,3.581-8,8c0,2.325,0.998,4.412,2.582,5.874l11.292-11.292
				C59.412,27.997,57.325,27,55,27z"/>
		</g>
		<g>
			<path style="fill:#FF6C5E;" d="M55,47c-4.418,0-8,3.582-8,8c0,2.325,0.998,4.412,2.582,5.874l11.292-11.292
				C59.412,47.997,57.325,47,55,47z"/>
		</g>
		<g>
			<path style="fill:#FF6C5E;" d="M55,67c-4.418,0-8,3.582-8,8c0,2.325,0.998,4.412,2.582,5.874l11.292-11.292
				C59.412,67.997,57.325,67,55,67z"/>
		</g>
	</g>
</g>
<g id="R-Red" style="display:none;">
	<g style="display:inline;">
		<circle style="fill:#FABBAF;" cx="55" cy="55" r="55"/>
	</g>
	<g style="display:inline;">
		<g>
			<path style="fill:#FFFFFF;" d="M78.063,47C79.685,47,81,48.315,81,49.937c0,0.687-0.241,1.352-0.681,1.88L71,63V47H78.063z"/>
		</g>
		<g>
			<path style="fill:#FFFFFF;" d="M78.063,67C79.685,67,81,68.315,81,69.937c0,0.687-0.241,1.352-0.681,1.88L71,83V67H78.063z"/>
		</g>
		<g>
			<path style="fill:#FFFFFF;" d="M39,47v16l-9.319-11.183C29.241,51.289,29,50.624,29,49.937C29,48.315,30.315,47,31.937,47H39z"/>
		</g>
		<g>
			<path style="fill:#FFFFFF;" d="M78.063,27C79.685,27,81,28.315,81,29.937c0,0.687-0.241,1.352-0.681,1.88L71,43V27H78.063z"/>
		</g>
		<g>
			<path style="fill:#FFFFFF;" d="M39,27v16l-9.319-11.183C29.241,31.289,29,30.624,29,29.937C29,28.315,30.315,27,31.937,27H39z"/>
		</g>
		<g>
			<path style="fill:#FFFFFF;" d="M39,67v16l-9.319-11.183C29.241,71.289,29,70.624,29,69.937C29,68.315,30.315,67,31.937,67H39z"/>
		</g>
		<g>
			<path style="fill:#4A1410;" d="M43,23c-2.209,0-4,1.791-4,4v4.07V43v40c0,2.21,1.79,4,4,4h24c2.21,0,4-1.79,4-4V43V31.07V27
				c0-2.209-1.791-4-4-4H43z"/>
		</g>
		<g>
			<circle style="fill:#E54B44;" cx="55" cy="35" r="8"/>
		</g>
		<g>
			<circle style="fill:#E54B44;" cx="55" cy="55" r="8"/>
		</g>
		<g>
			<circle style="fill:#E54B44;" cx="55" cy="75" r="8"/>
		</g>
		<g>
			<path style="fill:#FF6C5E;" d="M55,27c-4.418,0-8,3.581-8,8c0,2.325,0.998,4.412,2.582,5.874l11.292-11.292
				C59.412,27.998,57.325,27,55,27z"/>
		</g>
		<g>
			<path style="fill:#FF6C5E;" d="M55,47c-4.418,0-8,3.582-8,8c0,2.325,0.998,4.412,2.582,5.874l11.292-11.292
				C59.412,47.998,57.325,47,55,47z"/>
		</g>
		<g>
			<path style="fill:#FF6C5E;" d="M55,67c-4.418,0-8,3.581-8,8c0,2.325,0.998,4.412,2.582,5.873l11.292-11.292
				C59.412,67.998,57.325,67,55,67z"/>
		</g>
	</g>
</g>
<g id="Yellow" style="display:none;">
	<g style="display:inline;">
		<g>
			<path style="fill:#FFFFFF;" d="M78.066,47c1.622,0,2.937,1.315,2.937,2.937c0,0.687-0.241,1.352-0.681,1.88L71.003,63V47H78.066z
				"/>
		</g>
		<g>
			<path style="fill:#FFFFFF;" d="M78.066,67c1.622,0,2.937,1.315,2.937,2.937c0,0.687-0.241,1.352-0.681,1.88L71.003,83V67H78.066z
				"/>
		</g>
		<g>
			<path style="fill:#FFFFFF;" d="M39.003,47v16l-9.319-11.183c-0.44-0.528-0.681-1.193-0.681-1.88c0-1.622,1.315-2.937,2.937-2.937
				H39.003z"/>
		</g>
		<g>
			<path style="fill:#FFFFFF;" d="M78.066,27c1.622,0,2.937,1.315,2.937,2.937c0,0.687-0.241,1.352-0.681,1.88L71.003,43V27H78.066z
				"/>
		</g>
		<g>
			<path style="fill:#FFFFFF;" d="M39.003,27v16l-9.319-11.183c-0.44-0.528-0.681-1.193-0.681-1.88c0-1.622,1.315-2.937,2.937-2.937
				H39.003z"/>
		</g>
		<g>
			<path style="fill:#FFFFFF;" d="M39.003,67v16l-9.319-11.183c-0.44-0.528-0.681-1.193-0.681-1.88c0-1.622,1.315-2.937,2.937-2.937
				H39.003z"/>
		</g>
		<g>
			<path style="fill:#3D320C;" d="M43.003,23c-2.209,0-4,1.791-4,4v4.07V43v40c0,2.21,1.79,4,4,4h24c2.21,0,4-1.79,4-4V43V31.07V27
				c0-2.209-1.791-4-4-4H43.003z"/>
		</g>
		<g>
			<circle style="fill:#FA9200;" cx="55.003" cy="35" r="8"/>
		</g>
		<g>
			<circle style="fill:#FA9200;" cx="55.003" cy="55" r="8"/>
		</g>
		<g>
			<circle style="fill:#FA9200;" cx="55.003" cy="75" r="8"/>
		</g>
		<g>
			<path style="fill:#FFAA00;" d="M55.003,27c-4.418,0-8,3.581-8,8c0,2.325,0.998,4.412,2.582,5.874l11.292-11.292
				C59.415,27.997,57.328,27,55.003,27z"/>
		</g>
		<g>
			<path style="fill:#FFAA00;" d="M55.003,47c-4.418,0-8,3.582-8,8c0,2.325,0.998,4.412,2.582,5.874l11.292-11.292
				C59.415,47.997,57.328,47,55.003,47z"/>
		</g>
		<g>
			<path style="fill:#FFAA00;" d="M55.003,67c-4.418,0-8,3.582-8,8c0,2.325,0.998,4.412,2.582,5.874l11.292-11.292
				C59.415,67.997,57.328,67,55.003,67z"/>
		</g>
	</g>
</g>
<g id="R-Yellow" style="display:none;">
	<g style="display:inline;">
		<circle style="fill:#FFD75E;" cx="55" cy="55" r="55"/>
	</g>
	<g style="display:inline;">
		<g>
			<path style="fill:#FFFFFF;" d="M78.063,47C79.685,47,81,48.315,81,49.937c0,0.687-0.241,1.352-0.681,1.88L71,63V47H78.063z"/>
		</g>
		<g>
			<path style="fill:#FFFFFF;" d="M78.063,67C79.685,67,81,68.315,81,69.937c0,0.687-0.241,1.352-0.681,1.88L71,83V67H78.063z"/>
		</g>
		<g>
			<path style="fill:#FFFFFF;" d="M39,47v16l-9.319-11.183C29.241,51.289,29,50.624,29,49.937C29,48.315,30.315,47,31.937,47H39z"/>
		</g>
		<g>
			<path style="fill:#FFFFFF;" d="M78.063,27C79.685,27,81,28.315,81,29.937c0,0.687-0.241,1.352-0.681,1.88L71,43V27H78.063z"/>
		</g>
		<g>
			<path style="fill:#FFFFFF;" d="M39,27v16l-9.319-11.183C29.241,31.289,29,30.624,29,29.937C29,28.315,30.315,27,31.937,27H39z"/>
		</g>
		<g>
			<path style="fill:#FFFFFF;" d="M39,67v16l-9.319-11.183C29.241,71.289,29,70.624,29,69.937C29,68.315,30.315,67,31.937,67H39z"/>
		</g>
		<g>
			<path style="fill:#3D320C;" d="M43,23c-2.209,0-4,1.791-4,4v4.07V43v40c0,2.21,1.79,4,4,4h24c2.21,0,4-1.79,4-4V43V31.07V27
				c0-2.209-1.791-4-4-4H43z"/>
		</g>
		<g>
			<circle style="fill:#FA9200;" cx="55" cy="35" r="8"/>
		</g>
		<g>
			<circle style="fill:#FA9200;" cx="55" cy="55" r="8"/>
		</g>
		<g>
			<circle style="fill:#FA9200;" cx="55" cy="75" r="8"/>
		</g>
		<g>
			<path style="fill:#FFAA00;" d="M55,27c-4.418,0-8,3.581-8,8c0,2.325,0.998,4.412,2.582,5.874l11.292-11.292
				C59.412,27.998,57.325,27,55,27z"/>
		</g>
		<g>
			<path style="fill:#FFAA00;" d="M55,47c-4.418,0-8,3.582-8,8c0,2.325,0.998,4.412,2.582,5.874l11.292-11.292
				C59.412,47.998,57.325,47,55,47z"/>
		</g>
		<g>
			<path style="fill:#FFAA00;" d="M55,67c-4.418,0-8,3.581-8,8c0,2.325,0.998,4.412,2.582,5.873l11.292-11.292
				C59.412,67.998,57.325,67,55,67z"/>
		</g>
	</g>
</g>
</svg>
